<svg width="418" height="366" viewBox="0 0 418 366" fill="none" xmlns="http://www.w3.org/2000/svg">
<g filter="url(#filter0_d_3_109)">
<g filter="url(#filter1_d_3_109)">
<path d="M100 158L186.603 208V308L100 358L13.3975 308V208L100 158Z" fill="#000100"/>
<path d="M14.8975 208.866L100 159.732L185.103 208.866V307.134L100 356.268L14.8975 307.134V208.866Z" stroke="black" stroke-width="3"/>
</g>
<path d="M35.5481 220.789L100 183.577L164.452 220.789V295.211L100 332.423L35.5481 295.211V220.789Z" fill="url(#paint0_diamond_3_109)" stroke="black"/>
<path d="M100 233L121.651 245.5V270.5L100 283L78.3494 270.5V245.5L100 233Z" fill="black"/>
<g filter="url(#filter2_f_3_109)">
<circle cx="100" cy="258" r="10" fill="#FD0000"/>
</g>
<g filter="url(#filter3_d_3_109)">
<path d="M200 0L286.603 50V150L200 200L113.397 150V50L200 0Z" fill="#000100"/>
<path d="M114.897 50.866L200 1.73205L285.103 50.866V149.134L200 198.268L114.897 149.134V50.866Z" stroke="black" stroke-width="3"/>
</g>
<path d="M135.548 62.7887L200 25.5774L264.452 62.7887V137.211L200 174.423L135.548 137.211V62.7887Z" fill="url(#paint1_diamond_3_109)" stroke="black"/>
<path d="M200 75L221.651 87.5V112.5L200 125L178.349 112.5V87.5L200 75Z" fill="black"/>
<g filter="url(#filter4_f_3_109)">
<circle cx="200" cy="100" r="10" fill="#FD0000"/>
</g>
<g filter="url(#filter5_d_3_109)">
<path d="M300 158L386.603 208V308L300 358L213.397 308V208L300 158Z" fill="#000100"/>
<path d="M214.897 208.866L300 159.732L385.103 208.866V307.134L300 356.268L214.897 307.134V208.866Z" stroke="black" stroke-width="3"/>
</g>
<path d="M235.548 220.789L300 183.577L364.452 220.789V295.211L300 332.423L235.548 295.211V220.789Z" fill="url(#paint2_diamond_3_109)" stroke="black"/>
<path d="M300 233L321.651 245.5V270.5L300 283L278.349 270.5V245.5L300 233Z" fill="black"/>
<g filter="url(#filter6_f_3_109)">
<circle cx="300" cy="258" r="10" fill="#FD0000"/>
</g>
<g filter="url(#filter7_d_3_109)">
<mask id="path-16-outside-1_3_109" maskUnits="userSpaceOnUse" x="72" y="155" width="259" height="79" fill="black">
<rect fill="white" x="72" y="155" width="259" height="79"/>
<path d="M73.9688 157.734H139.5V170.766H88.8281V189.937H131.859V202.172H88.8281V231H73.9688V157.734ZM153.75 157.734H168.609L214.266 181.641V157.734H229.125V231H214.266V197.391L168.609 173.625V231H153.75V157.734ZM253.266 209.203C255.922 210.703 258.609 212.062 261.328 213.281C264.078 214.469 266.922 215.484 269.859 216.328C272.797 217.141 275.875 217.766 279.094 218.203C282.344 218.641 285.797 218.859 289.453 218.859C293.859 218.859 297.609 218.578 300.703 218.016C303.797 217.422 306.312 216.625 308.25 215.625C310.219 214.594 311.641 213.375 312.516 211.969C313.422 210.562 313.875 209.031 313.875 207.375C313.875 204.719 312.766 202.625 310.547 201.094C308.328 199.531 304.906 198.75 300.281 198.75C298.25 198.75 296.109 198.891 293.859 199.172C291.609 199.422 289.328 199.703 287.016 200.016C284.734 200.328 282.469 200.625 280.219 200.906C278 201.156 275.906 201.281 273.938 201.281C270.656 201.281 267.5 200.859 264.469 200.016C261.469 199.172 258.797 197.906 256.453 196.219C254.141 194.531 252.297 192.422 250.922 189.891C249.547 187.359 248.859 184.406 248.859 181.031C248.859 179.031 249.125 177.047 249.656 175.078C250.219 173.109 251.094 171.234 252.281 169.453C253.5 167.641 255.063 165.969 256.969 164.437C258.875 162.875 261.172 161.531 263.859 160.406C266.578 159.281 269.703 158.406 273.234 157.781C276.797 157.125 280.844 156.797 285.375 156.797C288.656 156.797 291.953 156.984 295.266 157.359C298.578 157.703 301.797 158.203 304.922 158.859C308.078 159.516 311.109 160.312 314.016 161.25C316.922 162.156 319.625 163.172 322.125 164.297L315.609 176.297C313.547 175.391 311.328 174.562 308.953 173.812C306.578 173.031 304.094 172.359 301.5 171.797C298.906 171.234 296.219 170.797 293.438 170.484C290.688 170.141 287.875 169.969 285 169.969C280.906 169.969 277.531 170.266 274.875 170.859C272.25 171.453 270.156 172.219 268.594 173.156C267.031 174.062 265.938 175.094 265.313 176.25C264.719 177.375 264.422 178.5 264.422 179.625C264.422 181.812 265.406 183.609 267.375 185.016C269.344 186.391 272.344 187.078 276.375 187.078C278 187.078 279.859 186.969 281.953 186.75C284.078 186.5 286.297 186.234 288.609 185.953C290.953 185.672 293.328 185.422 295.734 185.203C298.172 184.953 300.531 184.828 302.813 184.828C307.125 184.828 310.937 185.312 314.25 186.281C317.594 187.25 320.391 188.641 322.641 190.453C324.891 192.234 326.594 194.406 327.75 196.969C328.906 199.5 329.484 202.344 329.484 205.5C329.484 209.719 328.5 213.484 326.531 216.797C324.594 220.078 321.812 222.859 318.187 225.141C314.594 227.391 310.25 229.109 305.156 230.297C300.063 231.453 294.391 232.031 288.141 232.031C284.016 232.031 279.984 231.766 276.047 231.234C272.109 230.734 268.328 230.016 264.703 229.078C261.109 228.109 257.672 226.969 254.391 225.656C251.141 224.312 248.125 222.844 245.344 221.25L253.266 209.203Z"/>
</mask>
<path d="M73.9688 157.734H139.5V170.766H88.8281V189.937H131.859V202.172H88.8281V231H73.9688V157.734ZM153.75 157.734H168.609L214.266 181.641V157.734H229.125V231H214.266V197.391L168.609 173.625V231H153.75V157.734ZM253.266 209.203C255.922 210.703 258.609 212.062 261.328 213.281C264.078 214.469 266.922 215.484 269.859 216.328C272.797 217.141 275.875 217.766 279.094 218.203C282.344 218.641 285.797 218.859 289.453 218.859C293.859 218.859 297.609 218.578 300.703 218.016C303.797 217.422 306.312 216.625 308.25 215.625C310.219 214.594 311.641 213.375 312.516 211.969C313.422 210.562 313.875 209.031 313.875 207.375C313.875 204.719 312.766 202.625 310.547 201.094C308.328 199.531 304.906 198.75 300.281 198.75C298.25 198.75 296.109 198.891 293.859 199.172C291.609 199.422 289.328 199.703 287.016 200.016C284.734 200.328 282.469 200.625 280.219 200.906C278 201.156 275.906 201.281 273.938 201.281C270.656 201.281 267.5 200.859 264.469 200.016C261.469 199.172 258.797 197.906 256.453 196.219C254.141 194.531 252.297 192.422 250.922 189.891C249.547 187.359 248.859 184.406 248.859 181.031C248.859 179.031 249.125 177.047 249.656 175.078C250.219 173.109 251.094 171.234 252.281 169.453C253.5 167.641 255.063 165.969 256.969 164.437C258.875 162.875 261.172 161.531 263.859 160.406C266.578 159.281 269.703 158.406 273.234 157.781C276.797 157.125 280.844 156.797 285.375 156.797C288.656 156.797 291.953 156.984 295.266 157.359C298.578 157.703 301.797 158.203 304.922 158.859C308.078 159.516 311.109 160.312 314.016 161.25C316.922 162.156 319.625 163.172 322.125 164.297L315.609 176.297C313.547 175.391 311.328 174.562 308.953 173.812C306.578 173.031 304.094 172.359 301.5 171.797C298.906 171.234 296.219 170.797 293.438 170.484C290.688 170.141 287.875 169.969 285 169.969C280.906 169.969 277.531 170.266 274.875 170.859C272.25 171.453 270.156 172.219 268.594 173.156C267.031 174.062 265.938 175.094 265.313 176.25C264.719 177.375 264.422 178.5 264.422 179.625C264.422 181.812 265.406 183.609 267.375 185.016C269.344 186.391 272.344 187.078 276.375 187.078C278 187.078 279.859 186.969 281.953 186.75C284.078 186.5 286.297 186.234 288.609 185.953C290.953 185.672 293.328 185.422 295.734 185.203C298.172 184.953 300.531 184.828 302.813 184.828C307.125 184.828 310.937 185.312 314.25 186.281C317.594 187.25 320.391 188.641 322.641 190.453C324.891 192.234 326.594 194.406 327.75 196.969C328.906 199.5 329.484 202.344 329.484 205.5C329.484 209.719 328.5 213.484 326.531 216.797C324.594 220.078 321.812 222.859 318.187 225.141C314.594 227.391 310.25 229.109 305.156 230.297C300.063 231.453 294.391 232.031 288.141 232.031C284.016 232.031 279.984 231.766 276.047 231.234C272.109 230.734 268.328 230.016 264.703 229.078C261.109 228.109 257.672 226.969 254.391 225.656C251.141 224.312 248.125 222.844 245.344 221.25L253.266 209.203Z" fill="#00F0FF"/>
<path d="M73.9688 157.734V156.734H72.9688V157.734H73.9688ZM139.5 157.734H140.5V156.734H139.5V157.734ZM139.5 170.766V171.766H140.5V170.766H139.5ZM88.8281 170.766V169.766H87.8281V170.766H88.8281ZM88.8281 189.937H87.8281V190.937H88.8281V189.937ZM131.859 189.937H132.859V188.937H131.859V189.937ZM131.859 202.172V203.172H132.859V202.172H131.859ZM88.8281 202.172V201.172H87.8281V202.172H88.8281ZM88.8281 231V232H89.8281V231H88.8281ZM73.9688 231H72.9688V232H73.9688V231ZM73.9688 158.734H139.5V156.734H73.9688V158.734ZM138.5 157.734V170.766H140.5V157.734H138.5ZM139.5 169.766H88.8281V171.766H139.5V169.766ZM87.8281 170.766V189.937H89.8281V170.766H87.8281ZM88.8281 190.937H131.859V188.937H88.8281V190.937ZM130.859 189.937V202.172H132.859V189.937H130.859ZM131.859 201.172H88.8281V203.172H131.859V201.172ZM87.8281 202.172V231H89.8281V202.172H87.8281ZM88.8281 230H73.9688V232H88.8281V230ZM74.9688 231V157.734H72.9688V231H74.9688ZM153.75 157.734V156.734H152.75V157.734H153.75ZM168.609 157.734L169.073 156.848L168.855 156.734H168.609V157.734ZM214.266 181.641L213.802 182.527L215.266 183.293V181.641H214.266ZM214.266 157.734V156.734H213.266V157.734H214.266ZM229.125 157.734H230.125V156.734H229.125V157.734ZM229.125 231V232H230.125V231H229.125ZM214.266 231H213.266V232H214.266V231ZM214.266 197.391H215.266V196.784L214.727 196.504L214.266 197.391ZM168.609 173.625L169.071 172.738L167.609 171.977V173.625H168.609ZM168.609 231V232H169.609V231H168.609ZM153.75 231H152.75V232H153.75V231ZM153.75 158.734H168.609V156.734H153.75V158.734ZM168.146 158.62L213.802 182.527L214.729 180.755L169.073 156.848L168.146 158.62ZM215.266 181.641V157.734H213.266V181.641H215.266ZM214.266 158.734H229.125V156.734H214.266V158.734ZM228.125 157.734V231H230.125V157.734H228.125ZM229.125 230H214.266V232H229.125V230ZM215.266 231V197.391H213.266V231H215.266ZM214.727 196.504L169.071 172.738L168.148 174.512L213.804 198.278L214.727 196.504ZM167.609 173.625V231H169.609V173.625H167.609ZM168.609 230H153.75V232H168.609V230ZM154.75 231V157.734H152.75V231H154.75ZM253.266 209.203L253.757 208.332L252.944 207.873L252.43 208.654L253.266 209.203ZM261.328 213.281L260.919 214.194L260.932 214.199L261.328 213.281ZM269.859 216.328L269.583 217.289L269.593 217.292L269.859 216.328ZM279.094 218.203L278.959 219.194L278.96 219.194L279.094 218.203ZM300.703 218.016L300.882 219L300.892 218.998L300.703 218.016ZM308.25 215.625L308.709 216.514L308.714 216.511L308.25 215.625ZM312.516 211.969L311.675 211.427L311.671 211.434L311.667 211.44L312.516 211.969ZM310.547 201.094L309.971 201.911L309.979 201.917L310.547 201.094ZM293.859 199.172L293.97 200.166L293.983 200.164L293.859 199.172ZM287.016 200.016L286.882 199.025L286.88 199.025L287.016 200.016ZM280.219 200.906L280.331 201.9L280.343 201.899L280.219 200.906ZM264.469 200.016L264.198 200.978L264.201 200.979L264.469 200.016ZM256.453 196.219L255.864 197.027L255.869 197.03L256.453 196.219ZM249.656 175.078L248.695 174.803L248.693 174.81L248.691 174.818L249.656 175.078ZM252.281 169.453L251.451 168.895L251.449 168.898L252.281 169.453ZM256.969 164.437L257.595 165.217L257.603 165.211L256.969 164.437ZM263.859 160.406L263.477 159.482L263.473 159.484L263.859 160.406ZM273.234 157.781L273.409 158.766L273.416 158.765L273.234 157.781ZM295.266 157.359L295.153 158.353L295.162 158.354L295.266 157.359ZM304.922 158.859L304.716 159.838L304.718 159.838L304.922 158.859ZM314.016 161.25L313.709 162.202L313.718 162.205L314.016 161.25ZM322.125 164.297L323.004 164.774L323.518 163.827L322.535 163.385L322.125 164.297ZM315.609 176.297L315.207 177.212L316.049 177.582L316.488 176.774L315.609 176.297ZM308.953 173.812L308.641 174.762L308.652 174.766L308.953 173.812ZM293.438 170.484L293.313 171.477L293.326 171.478L293.438 170.484ZM274.875 170.859L274.657 169.883L274.654 169.884L274.875 170.859ZM268.594 173.156L269.095 174.021L269.102 174.018L269.108 174.014L268.594 173.156ZM265.313 176.25L264.433 175.774L264.428 175.783L265.313 176.25ZM267.375 185.016L266.794 185.829L266.802 185.835L267.375 185.016ZM281.953 186.75L282.057 187.745L282.07 187.743L281.953 186.75ZM288.609 185.953L288.49 184.96L288.489 184.96L288.609 185.953ZM295.734 185.203L295.825 186.199L295.836 186.198L295.734 185.203ZM314.25 186.281L313.969 187.241L313.972 187.242L314.25 186.281ZM322.641 190.453L322.013 191.232L322.02 191.237L322.641 190.453ZM327.75 196.969L326.838 197.38L326.84 197.384L327.75 196.969ZM326.531 216.797L325.672 216.286L325.67 216.288L326.531 216.797ZM318.187 225.141L318.718 225.988L318.72 225.987L318.187 225.141ZM305.156 230.297L305.378 231.272L305.383 231.271L305.156 230.297ZM276.047 231.234L276.181 230.243L276.173 230.242L276.047 231.234ZM264.703 229.078L264.443 230.044L264.453 230.046L264.703 229.078ZM254.391 225.656L254.009 226.58L254.019 226.585L254.391 225.656ZM245.344 221.25L244.508 220.701L243.924 221.589L244.847 222.118L245.344 221.25ZM252.774 210.074C255.456 211.589 258.171 212.962 260.919 214.194L261.737 212.369C259.047 211.163 256.387 209.818 253.757 208.332L252.774 210.074ZM260.932 214.199C263.722 215.404 266.606 216.434 269.583 217.289L270.135 215.367C267.238 214.535 264.435 213.533 261.725 212.363L260.932 214.199ZM269.593 217.292C272.576 218.117 275.699 218.751 278.959 219.194L279.228 217.212C276.051 216.78 273.017 216.164 270.126 215.364L269.593 217.292ZM278.96 219.194C282.259 219.638 285.757 219.859 289.453 219.859V217.859C285.837 217.859 282.428 217.643 279.227 217.212L278.96 219.194ZM289.453 219.859C293.898 219.859 297.711 219.576 300.882 218.999L300.524 217.032C297.508 217.58 293.821 217.859 289.453 217.859V219.859ZM300.892 218.998C304.042 218.393 306.657 217.572 308.709 216.514L307.791 214.736C305.968 215.678 303.552 216.451 300.515 217.034L300.892 218.998ZM308.714 216.511C310.789 215.424 312.369 214.098 313.365 212.497L311.667 211.44C310.913 212.652 309.649 213.763 307.786 214.739L308.714 216.511ZM313.356 212.51C314.365 210.944 314.875 209.225 314.875 207.375H312.875C312.875 208.837 312.478 210.181 311.675 211.427L313.356 212.51ZM314.875 207.375C314.875 204.384 313.599 201.985 311.115 200.271L309.979 201.917C311.932 203.265 312.875 205.053 312.875 207.375H314.875ZM311.123 200.276C308.654 198.537 304.982 197.75 300.281 197.75V199.75C304.83 199.75 308.003 200.525 309.971 201.911L311.123 200.276ZM300.281 197.75C298.204 197.75 296.022 197.894 293.735 198.18L293.983 200.164C296.197 199.887 298.296 199.75 300.281 199.75V197.75ZM293.749 198.178C291.491 198.429 289.202 198.711 286.882 199.025L287.15 201.007C289.454 200.695 291.728 200.415 293.97 200.166L293.749 198.178ZM286.88 199.025C284.602 199.337 282.341 199.633 280.095 199.914L280.343 201.899C282.597 201.617 284.866 201.319 287.151 201.006L286.88 199.025ZM280.107 199.913C277.92 200.159 275.864 200.281 273.938 200.281V202.281C275.948 202.281 278.08 202.154 280.331 201.9L280.107 199.913ZM273.938 200.281C270.743 200.281 267.677 199.871 264.737 199.052L264.201 200.979C267.323 201.848 270.57 202.281 273.938 202.281V200.281ZM264.74 199.053C261.843 198.238 259.279 197.021 257.037 195.407L255.869 197.03C258.315 198.791 261.094 200.105 264.198 200.978L264.74 199.053ZM257.043 195.411C254.851 193.811 253.105 191.815 251.801 189.413L250.043 190.368C251.488 193.029 253.431 195.251 255.864 197.027L257.043 195.411ZM251.801 189.413C250.518 187.052 249.859 184.268 249.859 181.031H247.859C247.859 184.544 248.576 187.667 250.043 190.368L251.801 189.413ZM249.859 181.031C249.859 179.121 250.113 177.224 250.622 175.339L248.691 174.818C248.137 176.87 247.859 178.942 247.859 181.031H249.859ZM250.618 175.353C251.151 173.488 251.981 171.707 253.113 170.008L251.449 168.898C250.207 170.762 249.287 172.731 248.695 174.803L250.618 175.353ZM253.111 170.011C254.267 168.292 255.758 166.693 257.595 165.217L256.343 163.658C254.367 165.245 252.733 166.99 251.451 168.895L253.111 170.011ZM257.603 165.211C259.422 163.72 261.632 162.423 264.246 161.329L263.473 159.484C260.712 160.64 258.328 162.03 256.335 163.664L257.603 165.211ZM264.242 161.33C266.881 160.238 269.934 159.381 273.409 158.766L273.06 156.797C269.472 157.432 266.275 158.324 263.477 159.482L264.242 161.33ZM273.416 158.765C276.906 158.122 280.89 157.797 285.375 157.797V155.797C280.797 155.797 276.688 156.128 273.053 156.798L273.416 158.765ZM285.375 157.797C288.618 157.797 291.877 157.982 295.153 158.353L295.378 156.366C292.029 155.987 288.694 155.797 285.375 155.797V157.797ZM295.162 158.354C298.442 158.694 301.627 159.189 304.716 159.838L305.127 157.881C301.967 157.217 298.714 156.712 295.369 156.365L295.162 158.354ZM304.718 159.838C307.842 160.488 310.838 161.276 313.709 162.202L314.323 160.298C311.381 159.349 308.315 158.543 305.125 157.88L304.718 159.838ZM313.718 162.205C316.59 163.1 319.255 164.102 321.715 165.209L322.535 163.385C319.995 162.242 317.254 161.212 314.313 160.295L313.718 162.205ZM321.246 163.82L314.731 175.82L316.488 176.774L323.004 164.774L321.246 163.82ZM316.012 175.381C313.913 174.459 311.66 173.619 309.254 172.859L308.652 174.766C310.996 175.506 313.181 176.322 315.207 177.212L316.012 175.381ZM309.266 172.863C306.856 172.07 304.338 171.389 301.712 170.82L301.288 172.774C303.85 173.33 306.301 173.993 308.641 174.762L309.266 172.863ZM301.712 170.82C299.083 170.25 296.362 169.807 293.549 169.491L293.326 171.478C296.075 171.787 298.729 172.219 301.288 172.774L301.712 170.82ZM293.562 169.492C290.769 169.143 287.915 168.969 285 168.969V170.969C287.835 170.969 290.606 171.138 293.313 171.477L293.562 169.492ZM285 168.969C280.866 168.969 277.411 169.268 274.657 169.883L275.093 171.835C277.652 171.263 280.947 170.969 285 170.969V168.969ZM274.654 169.884C271.97 170.491 269.765 171.287 268.079 172.299L269.108 174.014C270.547 173.15 272.53 172.415 275.096 171.835L274.654 169.884ZM268.092 172.291C266.427 173.257 265.172 174.406 264.433 175.774L266.192 176.726C266.703 175.781 267.635 174.868 269.095 174.021L268.092 172.291ZM264.428 175.783C263.768 177.033 263.422 178.317 263.422 179.625H265.422C265.422 178.683 265.669 177.717 266.197 176.717L264.428 175.783ZM263.422 179.625C263.422 182.173 264.595 184.259 266.794 185.829L267.956 184.202C266.218 182.96 265.422 181.452 265.422 179.625H263.422ZM266.802 185.835C269.019 187.383 272.264 188.078 276.375 188.078V186.078C272.423 186.078 269.669 185.398 267.948 184.196L266.802 185.835ZM276.375 188.078C278.043 188.078 279.938 187.966 282.057 187.745L281.849 185.755C279.781 185.972 277.957 186.078 276.375 186.078V188.078ZM282.07 187.743C284.196 187.493 286.416 187.227 288.73 186.946L288.489 184.96C286.177 185.242 283.96 185.507 281.836 185.757L282.07 187.743ZM288.729 186.946C291.063 186.666 293.428 186.417 295.825 186.199L295.644 184.207C293.228 184.427 290.844 184.678 288.49 184.96L288.729 186.946ZM295.836 186.198C298.242 185.951 300.568 185.828 302.813 185.828V183.828C300.495 183.828 298.101 183.955 295.632 184.208L295.836 186.198ZM302.813 185.828C307.053 185.828 310.767 186.305 313.969 187.241L314.531 185.321C311.108 184.32 307.197 183.828 302.813 183.828V185.828ZM313.972 187.242C317.214 188.181 319.885 189.518 322.013 191.232L323.268 189.674C320.896 187.764 317.974 186.319 314.528 185.321L313.972 187.242ZM322.02 191.237C324.147 192.921 325.749 194.966 326.838 197.38L328.662 196.557C327.438 193.846 325.634 191.547 323.261 189.669L322.02 191.237ZM326.84 197.384C327.93 199.769 328.484 202.468 328.484 205.5H330.484C330.484 202.22 329.883 199.231 328.66 196.553L326.84 197.384ZM328.484 205.5C328.484 209.556 327.54 213.142 325.672 216.286L327.391 217.308C329.46 213.826 330.484 209.881 330.484 205.5H328.484ZM325.67 216.288C323.823 219.416 321.162 222.087 317.655 224.294L318.72 225.987C322.463 223.632 325.364 220.74 327.392 217.305L325.67 216.288ZM317.657 224.293C314.176 226.473 309.94 228.155 304.929 229.323L305.383 231.271C310.56 230.064 315.012 228.309 318.718 225.988L317.657 224.293ZM304.935 229.322C299.926 230.459 294.33 231.031 288.141 231.031V233.031C294.451 233.031 300.199 232.448 305.378 231.272L304.935 229.322ZM288.141 231.031C284.059 231.031 280.072 230.768 276.181 230.243L275.913 232.225C279.897 232.763 283.973 233.031 288.141 233.031V231.031ZM276.173 230.242C272.275 229.747 268.535 229.036 264.954 228.11L264.453 230.046C268.121 230.995 271.944 231.721 275.921 232.226L276.173 230.242ZM264.963 228.113C261.405 227.153 258.005 226.025 254.762 224.728L254.019 226.585C257.339 227.912 260.813 229.065 264.443 230.044L264.963 228.113ZM254.773 224.732C251.558 223.403 248.582 221.953 245.841 220.382L244.847 222.118C247.668 223.735 250.723 225.222 254.009 226.58L254.773 224.732ZM246.179 221.799L254.101 209.753L252.43 208.654L244.508 220.701L246.179 221.799Z" fill="#000100" mask="url(#path-16-outside-1_3_109)"/>
</g>
</g>
<defs>
<filter id="filter0_d_3_109" x="0" y="0" width="418" height="366" filterUnits="userSpaceOnUse" color-interpolation-filters="sRGB">
<feFlood flood-opacity="0" result="BackgroundImageFix"/>
<feColorMatrix in="SourceAlpha" type="matrix" values="0 0 0 0 0 0 0 0 0 0 0 0 0 0 0 0 0 0 127 0" result="hardAlpha"/>
<feOffset dx="14" dy="4"/>
<feGaussianBlur stdDeviation="2"/>
<feComposite in2="hardAlpha" operator="out"/>
<feColorMatrix type="matrix" values="0 0 0 0 0 0 0 0 0 0 0 0 0 0 0 0 0 0 0.14 0"/>
<feBlend mode="normal" in2="BackgroundImageFix" result="effect1_dropShadow_3_109"/>
<feBlend mode="normal" in="SourceGraphic" in2="effect1_dropShadow_3_109" result="shape"/>
</filter>
<filter id="filter1_d_3_109" x="9.39746" y="158" width="181.205" height="208" filterUnits="userSpaceOnUse" color-interpolation-filters="sRGB">
<feFlood flood-opacity="0" result="BackgroundImageFix"/>
<feColorMatrix in="SourceAlpha" type="matrix" values="0 0 0 0 0 0 0 0 0 0 0 0 0 0 0 0 0 0 127 0" result="hardAlpha"/>
<feOffset dy="4"/>
<feGaussianBlur stdDeviation="2"/>
<feComposite in2="hardAlpha" operator="out"/>
<feColorMatrix type="matrix" values="0 0 0 0 0 0 0 0 0 0 0 0 0 0 0 0 0 0 0.25 0"/>
<feBlend mode="normal" in2="BackgroundImageFix" result="effect1_dropShadow_3_109"/>
<feBlend mode="normal" in="SourceGraphic" in2="effect1_dropShadow_3_109" result="shape"/>
</filter>
<filter id="filter2_f_3_109" x="78.9" y="236.9" width="42.2" height="42.2" filterUnits="userSpaceOnUse" color-interpolation-filters="sRGB">
<feFlood flood-opacity="0" result="BackgroundImageFix"/>
<feBlend mode="normal" in="SourceGraphic" in2="BackgroundImageFix" result="shape"/>
<feGaussianBlur stdDeviation="5.55" result="effect1_foregroundBlur_3_109"/>
</filter>
<filter id="filter3_d_3_109" x="109.397" y="0" width="181.205" height="208" filterUnits="userSpaceOnUse" color-interpolation-filters="sRGB">
<feFlood flood-opacity="0" result="BackgroundImageFix"/>
<feColorMatrix in="SourceAlpha" type="matrix" values="0 0 0 0 0 0 0 0 0 0 0 0 0 0 0 0 0 0 127 0" result="hardAlpha"/>
<feOffset dy="4"/>
<feGaussianBlur stdDeviation="2"/>
<feComposite in2="hardAlpha" operator="out"/>
<feColorMatrix type="matrix" values="0 0 0 0 0 0 0 0 0 0 0 0 0 0 0 0 0 0 0.25 0"/>
<feBlend mode="normal" in2="BackgroundImageFix" result="effect1_dropShadow_3_109"/>
<feBlend mode="normal" in="SourceGraphic" in2="effect1_dropShadow_3_109" result="shape"/>
</filter>
<filter id="filter4_f_3_109" x="178.9" y="78.9" width="42.2" height="42.2" filterUnits="userSpaceOnUse" color-interpolation-filters="sRGB">
<feFlood flood-opacity="0" result="BackgroundImageFix"/>
<feBlend mode="normal" in="SourceGraphic" in2="BackgroundImageFix" result="shape"/>
<feGaussianBlur stdDeviation="5.55" result="effect1_foregroundBlur_3_109"/>
</filter>
<filter id="filter5_d_3_109" x="209.397" y="158" width="181.205" height="208" filterUnits="userSpaceOnUse" color-interpolation-filters="sRGB">
<feFlood flood-opacity="0" result="BackgroundImageFix"/>
<feColorMatrix in="SourceAlpha" type="matrix" values="0 0 0 0 0 0 0 0 0 0 0 0 0 0 0 0 0 0 127 0" result="hardAlpha"/>
<feOffset dy="4"/>
<feGaussianBlur stdDeviation="2"/>
<feComposite in2="hardAlpha" operator="out"/>
<feColorMatrix type="matrix" values="0 0 0 0 0 0 0 0 0 0 0 0 0 0 0 0 0 0 0.25 0"/>
<feBlend mode="normal" in2="BackgroundImageFix" result="effect1_dropShadow_3_109"/>
<feBlend mode="normal" in="SourceGraphic" in2="effect1_dropShadow_3_109" result="shape"/>
</filter>
<filter id="filter6_f_3_109" x="278.9" y="236.9" width="42.2" height="42.2" filterUnits="userSpaceOnUse" color-interpolation-filters="sRGB">
<feFlood flood-opacity="0" result="BackgroundImageFix"/>
<feBlend mode="normal" in="SourceGraphic" in2="BackgroundImageFix" result="shape"/>
<feGaussianBlur stdDeviation="5.55" result="effect1_foregroundBlur_3_109"/>
</filter>
<filter id="filter7_d_3_109" x="72.9688" y="155.797" width="264.016" height="81.7344" filterUnits="userSpaceOnUse" color-interpolation-filters="sRGB">
<feFlood flood-opacity="0" result="BackgroundImageFix"/>
<feColorMatrix in="SourceAlpha" type="matrix" values="0 0 0 0 0 0 0 0 0 0 0 0 0 0 0 0 0 0 127 0" result="hardAlpha"/>
<feOffset dx="5" dy="3"/>
<feGaussianBlur stdDeviation="0.75"/>
<feComposite in2="hardAlpha" operator="out"/>
<feColorMatrix type="matrix" values="0 0 0 0 0 0 0 0 0 0 0 0 0 0 0 0 0 0 1 0"/>
<feBlend mode="normal" in2="BackgroundImageFix" result="effect1_dropShadow_3_109"/>
<feBlend mode="normal" in="SourceGraphic" in2="effect1_dropShadow_3_109" result="shape"/>
</filter>
<radialGradient id="paint0_diamond_3_109" cx="0" cy="0" r="1" gradientUnits="userSpaceOnUse" gradientTransform="translate(98.5 255) rotate(89.4595) scale(159.007)">
<stop offset="0.0200231" stop-color="#090909"/>
<stop offset="0.655068" stop-color="#00F0FF"/>
</radialGradient>
<radialGradient id="paint1_diamond_3_109" cx="0" cy="0" r="1" gradientUnits="userSpaceOnUse" gradientTransform="translate(198.5 97) rotate(89.4595) scale(159.007)">
<stop offset="0.0200231" stop-color="#090909"/>
<stop offset="0.655068" stop-color="#00F0FF"/>
</radialGradient>
<radialGradient id="paint2_diamond_3_109" cx="0" cy="0" r="1" gradientUnits="userSpaceOnUse" gradientTransform="translate(298.5 255) rotate(89.4595) scale(159.007)">
<stop offset="0.0200231" stop-color="#090909"/>
<stop offset="0.655068" stop-color="#00F0FF"/>
</radialGradient>
</defs>
</svg>
