<svg width="400" height="366" viewBox="0 0 400 366" fill="none" xmlns="http://www.w3.org/2000/svg">
<g filter="url(#filter0_d_3_55)">
<path d="M100 158L186.603 208V308L100 358L13.3975 308V208L100 158Z" fill="#000100"/>
<path d="M14.8975 208.866L100 159.732L185.103 208.866V307.134L100 356.268L14.8975 307.134V208.866Z" stroke="black" stroke-width="3"/>
</g>
<path d="M35.5481 220.789L100 183.577L164.452 220.789V295.211L100 332.423L35.5481 295.211V220.789Z" fill="url(#paint0_diamond_3_55)" stroke="black"/>
<path d="M100 233L121.651 245.5V270.5L100 283L78.3494 270.5V245.5L100 233Z" fill="black"/>
<g filter="url(#filter1_f_3_55)">
<circle cx="100" cy="258" r="10" fill="#FD0000"/>
</g>
<g filter="url(#filter2_d_3_55)">
<path d="M200 0L286.603 50V150L200 200L113.397 150V50L200 0Z" fill="#000100"/>
<path d="M114.897 50.866L200 1.73205L285.103 50.866V149.134L200 198.268L114.897 149.134V50.866Z" stroke="black" stroke-width="3"/>
</g>
<path d="M135.548 62.7887L200 25.5774L264.452 62.7887V137.211L200 174.423L135.548 137.211V62.7887Z" fill="url(#paint1_diamond_3_55)" stroke="black"/>
<path d="M200 75L221.651 87.5V112.5L200 125L178.349 112.5V87.5L200 75Z" fill="black"/>
<g filter="url(#filter3_f_3_55)">
<circle cx="200" cy="100" r="10" fill="#FD0000"/>
</g>
<g filter="url(#filter4_d_3_55)">
<path d="M300 158L386.603 208V308L300 358L213.397 308V208L300 158Z" fill="#000100"/>
<path d="M214.897 208.866L300 159.732L385.103 208.866V307.134L300 356.268L214.897 307.134V208.866Z" stroke="black" stroke-width="3"/>
</g>
<path d="M235.548 220.789L300 183.577L364.452 220.789V295.211L300 332.423L235.548 295.211V220.789Z" fill="url(#paint2_diamond_3_55)" stroke="black"/>
<path d="M300 233L321.651 245.5V270.5L300 283L278.349 270.5V245.5L300 233Z" fill="black"/>
<g filter="url(#filter5_f_3_55)">
<circle cx="300" cy="258" r="10" fill="#FD0000"/>
</g>
<g filter="url(#filter6_d_3_55)">
<mask id="path-16-outside-1_3_55" maskUnits="userSpaceOnUse" x="200.673" y="160.69" width="150.464" height="110.36" fill="black">
<rect fill="white" x="200.673" y="160.69" width="150.464" height="110.36"/>
<path d="M202.701 232.562L234.985 214.771L238.523 221.191L213.56 234.948L218.765 244.392L239.964 232.71L243.285 238.737L222.086 250.42L229.912 264.622L222.592 268.656L202.701 232.562ZM242.005 210.902L249.326 206.868L278.309 206.251L271.818 194.473L279.139 190.439L299.029 226.533L291.709 230.567L282.584 214.01L253.64 214.697L269.216 242.962L261.896 246.996L242.005 210.902ZM305.005 209.241C306.72 209.259 308.413 209.199 310.084 209.061C311.761 208.9 313.438 208.628 315.114 208.246C316.782 207.849 318.468 207.321 320.172 206.663C321.892 205.996 323.653 205.167 325.454 204.174C327.625 202.978 329.396 201.821 330.767 200.704C332.13 199.572 333.153 198.496 333.836 197.477C334.526 196.435 334.896 195.448 334.945 194.518C335.01 193.579 334.817 192.702 334.367 191.886C333.646 190.577 332.531 189.847 331.023 189.695C329.505 189.528 327.607 190.072 325.329 191.327C324.328 191.879 323.312 192.529 322.28 193.279C321.239 194.013 320.192 194.771 319.137 195.552C318.098 196.326 317.063 197.087 316.031 197.836C315.005 198.562 314.008 199.192 313.038 199.726C311.421 200.617 309.752 201.266 308.03 201.673C306.323 202.072 304.663 202.174 303.05 201.979C301.452 201.776 299.972 201.237 298.607 200.363C297.242 199.489 296.102 198.221 295.186 196.559C294.643 195.573 294.235 194.524 293.962 193.409C293.705 192.287 293.627 191.126 293.728 189.926C293.836 188.702 294.152 187.454 294.676 186.182C295.191 184.895 295.957 183.609 296.976 182.325C298.01 181.033 299.312 179.754 300.882 178.487C302.459 177.197 304.363 175.936 306.596 174.706C308.212 173.815 309.887 173.013 311.621 172.298C313.346 171.568 315.068 170.941 316.785 170.416C318.518 169.882 320.228 169.452 321.914 169.124C323.592 168.782 325.2 168.548 326.737 168.424L326.785 176.105C325.522 176.218 324.205 176.412 322.831 176.688C321.449 176.948 320.042 177.291 318.612 177.718C317.181 178.145 315.739 178.659 314.284 179.26C312.836 179.838 311.403 180.516 309.987 181.297C307.97 182.408 306.388 183.471 305.241 184.485C304.109 185.49 303.285 186.435 302.77 187.321C302.246 188.192 301.987 188.997 301.993 189.736C302.006 190.452 302.165 191.087 302.471 191.641C303.065 192.718 304.037 193.336 305.389 193.495C306.732 193.638 308.397 193.162 310.383 192.067C311.183 191.626 312.07 191.068 313.042 190.391C314.021 189.691 315.042 188.958 316.105 188.192C317.183 187.417 318.285 186.649 319.411 185.888C320.544 185.103 321.672 184.401 322.796 183.782C324.921 182.611 326.931 181.814 328.825 181.392C330.736 180.962 332.491 180.888 334.092 181.17C335.684 181.436 337.112 182.044 338.378 182.992C339.635 183.926 340.691 185.17 341.548 186.725C342.694 188.803 343.231 190.925 343.16 193.092C343.097 195.234 342.482 197.359 341.315 199.467C340.155 201.551 338.482 203.577 336.295 205.545C334.1 207.498 331.462 209.323 328.383 211.019C326.351 212.139 324.293 213.103 322.209 213.91C320.133 214.733 318.075 215.405 316.035 215.927C314.002 216.426 311.998 216.797 310.026 217.041C308.06 217.262 306.175 217.357 304.372 217.327L305.005 209.241Z"/>
</mask>
<path d="M202.701 232.562L234.985 214.771L238.523 221.191L213.56 234.948L218.765 244.392L239.964 232.71L243.285 238.737L222.086 250.42L229.912 264.622L222.592 268.656L202.701 232.562ZM242.005 210.902L249.326 206.868L278.309 206.251L271.818 194.473L279.139 190.439L299.029 226.533L291.709 230.567L282.584 214.01L253.64 214.697L269.216 242.962L261.896 246.996L242.005 210.902ZM305.005 209.241C306.72 209.259 308.413 209.199 310.084 209.061C311.761 208.9 313.438 208.628 315.114 208.246C316.782 207.849 318.468 207.321 320.172 206.663C321.892 205.996 323.653 205.167 325.454 204.174C327.625 202.978 329.396 201.821 330.767 200.704C332.13 199.572 333.153 198.496 333.836 197.477C334.526 196.435 334.896 195.448 334.945 194.518C335.01 193.579 334.817 192.702 334.367 191.886C333.646 190.577 332.531 189.847 331.023 189.695C329.505 189.528 327.607 190.072 325.329 191.327C324.328 191.879 323.312 192.529 322.28 193.279C321.239 194.013 320.192 194.771 319.137 195.552C318.098 196.326 317.063 197.087 316.031 197.836C315.005 198.562 314.008 199.192 313.038 199.726C311.421 200.617 309.752 201.266 308.03 201.673C306.323 202.072 304.663 202.174 303.05 201.979C301.452 201.776 299.972 201.237 298.607 200.363C297.242 199.489 296.102 198.221 295.186 196.559C294.643 195.573 294.235 194.524 293.962 193.409C293.705 192.287 293.627 191.126 293.728 189.926C293.836 188.702 294.152 187.454 294.676 186.182C295.191 184.895 295.957 183.609 296.976 182.325C298.01 181.033 299.312 179.754 300.882 178.487C302.459 177.197 304.363 175.936 306.596 174.706C308.212 173.815 309.887 173.013 311.621 172.298C313.346 171.568 315.068 170.941 316.785 170.416C318.518 169.882 320.228 169.452 321.914 169.124C323.592 168.782 325.2 168.548 326.737 168.424L326.785 176.105C325.522 176.218 324.205 176.412 322.831 176.688C321.449 176.948 320.042 177.291 318.612 177.718C317.181 178.145 315.739 178.659 314.284 179.26C312.836 179.838 311.403 180.516 309.987 181.297C307.97 182.408 306.388 183.471 305.241 184.485C304.109 185.49 303.285 186.435 302.77 187.321C302.246 188.192 301.987 188.997 301.993 189.736C302.006 190.452 302.165 191.087 302.471 191.641C303.065 192.718 304.037 193.336 305.389 193.495C306.732 193.638 308.397 193.162 310.383 192.067C311.183 191.626 312.07 191.068 313.042 190.391C314.021 189.691 315.042 188.958 316.105 188.192C317.183 187.417 318.285 186.649 319.411 185.888C320.544 185.103 321.672 184.401 322.796 183.782C324.921 182.611 326.931 181.814 328.825 181.392C330.736 180.962 332.491 180.888 334.092 181.17C335.684 181.436 337.112 182.044 338.378 182.992C339.635 183.926 340.691 185.17 341.548 186.725C342.694 188.803 343.231 190.925 343.16 193.092C343.097 195.234 342.482 197.359 341.315 199.467C340.155 201.551 338.482 203.577 336.295 205.545C334.1 207.498 331.462 209.323 328.383 211.019C326.351 212.139 324.293 213.103 322.209 213.91C320.133 214.733 318.075 215.405 316.035 215.927C314.002 216.426 311.998 216.797 310.026 217.041C308.06 217.262 306.175 217.357 304.372 217.327L305.005 209.241Z" fill="#00F0FF"/>
<path d="M202.701 232.562L202.219 231.686L201.343 232.169L201.826 233.044L202.701 232.562ZM234.985 214.771L235.861 214.288L235.378 213.413L234.503 213.895L234.985 214.771ZM238.523 221.191L239.006 222.067L239.881 221.584L239.399 220.708L238.523 221.191ZM213.56 234.948L213.077 234.072L212.201 234.554L212.684 235.43L213.56 234.948ZM218.765 244.392L217.889 244.875L218.371 245.751L219.247 245.268L218.765 244.392ZM239.964 232.71L240.84 232.227L240.357 231.352L239.481 231.834L239.964 232.71ZM243.285 238.737L243.768 239.613L244.644 239.131L244.161 238.255L243.285 238.737ZM222.086 250.42L221.603 249.544L220.728 250.027L221.21 250.902L222.086 250.42ZM229.912 264.622L230.395 265.498L231.271 265.015L230.788 264.139L229.912 264.622ZM222.592 268.656L221.716 269.139L222.199 270.014L223.075 269.532L222.592 268.656ZM203.184 233.438L235.468 215.647L234.503 213.895L202.219 231.686L203.184 233.438ZM234.109 215.254L237.647 221.673L239.399 220.708L235.861 214.288L234.109 215.254ZM238.04 220.315L213.077 234.072L214.042 235.823L239.006 222.067L238.04 220.315ZM212.684 235.43L217.889 244.875L219.64 243.91L214.435 234.465L212.684 235.43ZM219.247 245.268L240.446 233.586L239.481 231.834L218.282 243.517L219.247 245.268ZM239.088 233.193L242.409 239.22L244.161 238.255L240.84 232.227L239.088 233.193ZM242.803 237.862L221.603 249.544L222.569 251.296L243.768 239.613L242.803 237.862ZM221.21 250.902L229.037 265.104L230.788 264.139L222.962 249.937L221.21 250.902ZM229.43 263.746L222.109 267.78L223.075 269.532L230.395 265.498L229.43 263.746ZM223.468 268.173L203.577 232.079L201.826 233.044L221.716 269.139L223.468 268.173ZM242.005 210.902L241.523 210.027L240.647 210.509L241.13 211.385L242.005 210.902ZM249.326 206.868L249.305 205.868L249.059 205.874L248.843 205.992L249.326 206.868ZM278.309 206.251L278.33 207.25L279.982 207.215L279.184 205.768L278.309 206.251ZM271.818 194.473L271.336 193.597L270.46 194.08L270.943 194.956L271.818 194.473ZM279.139 190.439L280.015 189.956L279.532 189.081L278.656 189.563L279.139 190.439ZM299.029 226.533L299.512 227.409L300.388 226.926L299.905 226.051L299.029 226.533ZM291.709 230.567L290.833 231.05L291.316 231.926L292.192 231.443L291.709 230.567ZM282.584 214.01L283.46 213.527L283.167 212.996L282.561 213.01L282.584 214.01ZM253.64 214.697L253.616 213.697L251.969 213.736L252.764 215.179L253.64 214.697ZM269.216 242.962L269.699 243.838L270.575 243.356L270.092 242.48L269.216 242.962ZM261.896 246.996L261.02 247.479L261.503 248.355L262.379 247.872L261.896 246.996ZM242.488 211.778L249.809 207.744L248.843 205.992L241.523 210.027L242.488 211.778ZM249.347 207.868L278.33 207.25L278.287 205.251L249.305 205.868L249.347 207.868ZM279.184 205.768L272.694 193.991L270.943 194.956L277.433 206.733L279.184 205.768ZM272.301 195.349L279.621 191.315L278.656 189.563L271.336 193.597L272.301 195.349ZM278.263 190.922L298.154 227.016L299.905 226.051L280.015 189.956L278.263 190.922ZM298.547 225.657L291.226 229.691L292.192 231.443L299.512 227.409L298.547 225.657ZM292.585 230.085L283.46 213.527L281.709 214.492L290.833 231.05L292.585 230.085ZM282.561 213.01L253.616 213.697L253.664 215.696L282.608 215.009L282.561 213.01ZM252.764 215.179L268.341 243.445L270.092 242.48L254.516 214.214L252.764 215.179ZM268.734 242.087L261.413 246.121L262.379 247.872L269.699 243.838L268.734 242.087ZM262.772 246.514L242.881 210.42L241.13 211.385L261.02 247.479L262.772 246.514ZM305.005 209.241L305.015 208.241L304.081 208.232L304.008 209.163L305.005 209.241ZM310.084 209.061L310.166 210.058L310.18 210.057L310.084 209.061ZM315.114 208.246L315.336 209.221L315.346 209.219L315.114 208.246ZM320.172 206.663L320.532 207.596L320.534 207.595L320.172 206.663ZM330.767 200.704L331.399 201.479L331.406 201.473L330.767 200.704ZM333.836 197.477L334.667 198.034L334.67 198.029L333.836 197.477ZM334.945 194.518L333.947 194.449L333.947 194.457L333.946 194.465L334.945 194.518ZM331.023 189.695L330.913 190.689L330.922 190.69L331.023 189.695ZM322.28 193.279L322.856 194.096L322.867 194.088L322.28 193.279ZM319.137 195.552L318.542 194.749L318.54 194.75L319.137 195.552ZM316.031 197.836L316.608 198.653L316.618 198.646L316.031 197.836ZM308.03 201.673L308.257 202.647L308.26 202.647L308.03 201.673ZM303.05 201.979L302.923 202.971L302.93 202.972L303.05 201.979ZM293.962 193.409L292.987 193.633L292.989 193.64L292.991 193.647L293.962 193.409ZM293.728 189.926L292.732 189.837L292.732 189.841L293.728 189.926ZM294.676 186.182L295.601 186.563L295.604 186.554L294.676 186.182ZM296.976 182.325L296.195 181.701L296.193 181.704L296.976 182.325ZM300.882 178.487L301.51 179.265L301.515 179.261L300.882 178.487ZM311.621 172.298L312.002 173.223L312.011 173.219L311.621 172.298ZM316.785 170.416L317.078 171.372L317.08 171.371L316.785 170.416ZM321.914 169.124L322.105 170.106L322.114 170.104L321.914 169.124ZM326.737 168.424L327.737 168.418L327.73 167.34L326.656 167.427L326.737 168.424ZM326.785 176.105L326.874 177.101L327.79 177.018L327.785 176.098L326.785 176.105ZM322.831 176.688L323.016 177.671L323.027 177.668L322.831 176.688ZM314.284 179.26L314.654 180.189L314.665 180.185L314.284 179.26ZM305.241 184.485L304.579 183.735L304.577 183.737L305.241 184.485ZM302.77 187.321L303.627 187.837L303.631 187.831L303.634 187.824L302.77 187.321ZM301.993 189.736L300.993 189.744L300.993 189.754L301.993 189.736ZM305.389 193.495L305.273 194.488L305.283 194.489L305.389 193.495ZM313.042 190.391L313.613 191.212L313.623 191.205L313.042 190.391ZM316.105 188.192L315.521 187.38L315.52 187.381L316.105 188.192ZM319.411 185.888L319.971 186.717L319.981 186.71L319.411 185.888ZM328.825 181.392L329.043 182.368L329.045 182.368L328.825 181.392ZM334.092 181.17L333.918 182.155L333.926 182.156L334.092 181.17ZM338.378 182.992L337.778 183.793L337.782 183.795L338.378 182.992ZM343.16 193.092L342.161 193.059L342.161 193.062L343.16 193.092ZM341.315 199.467L342.189 199.954L342.19 199.952L341.315 199.467ZM336.295 205.545L336.96 206.293L336.964 206.289L336.295 205.545ZM322.209 213.91L321.848 212.978L321.84 212.98L322.209 213.91ZM316.035 215.927L316.273 216.899L316.283 216.896L316.035 215.927ZM310.026 217.041L310.137 218.035L310.149 218.034L310.026 217.041ZM304.372 217.327L303.376 217.249L303.293 218.309L304.356 218.327L304.372 217.327ZM304.994 210.241C306.74 210.259 308.464 210.198 310.166 210.058L310.002 208.065C308.363 208.2 306.701 208.259 305.015 208.241L304.994 210.241ZM310.18 210.057C311.9 209.891 313.619 209.612 315.336 209.221L314.892 207.271C313.256 207.644 311.622 207.909 309.988 208.066L310.18 210.057ZM315.346 209.219C317.06 208.811 318.789 208.269 320.532 207.596L319.812 205.73C318.147 206.373 316.503 206.887 314.882 207.274L315.346 209.219ZM320.534 207.595C322.3 206.911 324.101 206.061 325.936 205.05L324.971 203.298C323.205 204.272 321.485 205.082 319.811 205.731L320.534 207.595ZM325.936 205.05C328.141 203.835 329.966 202.646 331.399 201.479L330.136 199.929C328.825 200.996 327.109 202.12 324.971 203.298L325.936 205.05ZM331.406 201.473C332.813 200.304 333.912 199.159 334.667 198.034L333.005 196.921C332.394 197.833 331.447 198.839 330.128 199.935L331.406 201.473ZM334.67 198.029C335.426 196.887 335.882 195.73 335.943 194.571L333.946 194.465C333.909 195.167 333.626 195.983 333.002 196.926L334.67 198.029ZM335.942 194.587C336.02 193.458 335.787 192.389 335.243 191.403L333.492 192.369C333.847 193.014 333.999 193.7 333.947 194.449L335.942 194.587ZM335.243 191.403C334.361 189.802 332.953 188.884 331.123 188.7L330.922 190.69C332.11 190.81 332.932 191.353 333.492 192.369L335.243 191.403ZM331.132 188.701C329.311 188.5 327.191 189.159 324.846 190.452L325.812 192.203C328.023 190.984 329.7 190.555 330.913 190.689L331.132 188.701ZM324.846 190.452C323.805 191.025 322.754 191.698 321.692 192.469L322.867 194.088C323.87 193.36 324.851 192.733 325.812 192.203L324.846 190.452ZM321.703 192.462C320.656 193.2 319.602 193.963 318.542 194.749L319.733 196.356C320.781 195.578 321.822 194.825 322.856 194.096L321.703 192.462ZM318.54 194.75C317.504 195.521 316.472 196.28 315.443 197.027L316.618 198.646C317.653 197.894 318.692 197.13 319.734 196.355L318.54 194.75ZM315.453 197.02C314.454 197.727 313.488 198.336 312.555 198.851L313.521 200.602C314.527 200.047 315.556 199.397 316.608 198.653L315.453 197.02ZM312.555 198.851C311.015 199.699 309.43 200.315 307.799 200.7L308.26 202.647C310.074 202.218 311.828 201.535 313.521 200.602L312.555 198.851ZM307.802 200.7C306.2 201.074 304.658 201.166 303.17 200.986L302.93 202.972C304.668 203.182 306.445 203.071 308.257 202.647L307.802 200.7ZM303.176 200.987C301.727 200.802 300.387 200.315 299.146 199.521L298.068 201.205C299.556 202.158 301.178 202.749 302.923 202.971L303.176 200.987ZM299.146 199.521C297.944 198.752 296.911 197.618 296.061 196.076L294.31 197.041C295.293 198.825 296.54 200.227 298.068 201.205L299.146 199.521ZM296.061 196.076C295.562 195.169 295.186 194.202 294.933 193.172L292.991 193.647C293.284 194.845 293.724 195.977 294.31 197.041L296.061 196.076ZM294.937 193.186C294.704 192.169 294.631 191.111 294.725 190.01L292.732 189.841C292.622 191.14 292.706 192.405 292.987 193.633L294.937 193.186ZM294.724 190.014C294.823 188.902 295.111 187.752 295.6 186.563L293.751 185.802C293.194 187.156 292.85 188.502 292.732 189.837L294.724 190.014ZM295.604 186.554C296.077 185.371 296.79 184.168 297.759 182.947L296.193 181.704C295.124 183.05 294.304 184.419 293.747 185.811L295.604 186.554ZM297.757 182.95C298.737 181.725 299.984 180.496 301.51 179.265L300.254 177.709C298.639 179.011 297.283 180.341 296.195 181.701L297.757 182.95ZM301.515 179.261C303.035 178.017 304.887 176.79 307.078 175.582L306.113 173.83C303.84 175.083 301.882 176.376 300.249 177.713L301.515 179.261ZM307.078 175.582C308.661 174.71 310.303 173.923 312.002 173.223L311.24 171.374C309.472 172.102 307.763 172.921 306.113 173.83L307.078 175.582ZM312.011 173.219C313.705 172.502 315.394 171.886 317.078 171.372L316.493 169.459C314.741 169.995 312.987 170.634 311.231 171.377L312.011 173.219ZM317.08 171.371C318.78 170.848 320.455 170.426 322.105 170.106L321.724 168.143C320.001 168.477 318.256 168.916 316.491 169.46L317.08 171.371ZM322.114 170.104C323.757 169.769 325.324 169.542 326.817 169.421L326.656 167.427C325.075 167.555 323.427 167.795 321.714 168.145L322.114 170.104ZM325.737 168.43L325.785 176.111L327.785 176.098L327.737 168.418L325.737 168.43ZM326.695 175.109C325.393 175.226 324.04 175.426 322.634 175.707L323.027 177.668C324.369 177.399 325.651 177.21 326.874 177.101L326.695 175.109ZM322.646 175.705C321.228 175.972 319.788 176.324 318.326 176.76L318.898 178.676C320.297 178.259 321.67 177.924 323.016 177.67L322.646 175.705ZM318.326 176.76C316.861 177.197 315.386 177.723 313.902 178.336L314.665 180.185C316.091 179.596 317.502 179.093 318.898 178.676L318.326 176.76ZM313.913 178.331C312.425 178.925 310.956 179.621 309.504 180.421L310.47 182.173C311.851 181.412 313.246 180.751 314.654 180.189L313.913 178.331ZM309.504 180.421C307.452 181.552 305.801 182.655 304.579 183.735L305.903 185.234C306.975 184.287 308.488 183.265 310.47 182.173L309.504 180.421ZM304.577 183.737C303.399 184.782 302.493 185.808 301.905 186.819L303.634 187.824C304.077 187.062 304.818 186.197 305.905 185.232L304.577 183.737ZM301.913 186.806C301.328 187.778 300.985 188.764 300.993 189.744L302.993 189.728C302.989 189.23 303.164 188.606 303.627 187.837L301.913 186.806ZM300.993 189.754C301.009 190.611 301.201 191.409 301.595 192.123L303.346 191.158C303.129 190.764 303.003 190.293 302.993 189.718L300.993 189.754ZM301.595 192.123C302.363 193.517 303.64 194.297 305.273 194.488L305.505 192.502C304.435 192.376 303.766 191.92 303.346 191.158L301.595 192.123ZM305.283 194.489C306.927 194.664 308.81 194.076 310.865 192.943L309.9 191.192C307.984 192.248 306.538 192.611 305.495 192.5L305.283 194.489ZM310.865 192.943C311.704 192.481 312.62 191.903 313.613 191.212L312.471 189.571C311.519 190.232 310.663 190.771 309.9 191.192L310.865 192.943ZM313.623 191.205C314.604 190.504 315.626 189.77 316.689 189.003L315.52 187.381C314.458 188.146 313.438 188.879 312.46 189.578L313.623 191.205ZM316.688 189.004C317.758 188.235 318.853 187.472 319.971 186.716L318.851 185.059C317.717 185.826 316.607 186.599 315.521 187.38L316.688 189.004ZM319.981 186.71C321.088 185.943 322.187 185.259 323.279 184.657L322.314 182.906C321.158 183.543 320.001 184.263 318.842 185.066L319.981 186.71ZM323.279 184.657C325.34 183.522 327.26 182.765 329.043 182.368L328.608 180.416C326.601 180.863 324.502 181.7 322.314 182.906L323.279 184.657ZM329.045 182.368C330.852 181.961 332.472 181.9 333.918 182.155L334.265 180.185C332.51 179.876 330.619 179.963 328.606 180.417L329.045 182.368ZM333.926 182.156C335.364 182.397 336.643 182.942 337.778 183.793L338.978 182.192C337.582 181.146 336.003 180.476 334.257 180.183L333.926 182.156ZM337.782 183.795C338.909 184.632 339.875 185.761 340.672 187.207L342.424 186.242C341.507 184.578 340.36 183.219 338.974 182.19L337.782 183.795ZM340.672 187.207C341.739 189.143 342.225 191.089 342.161 193.059L344.16 193.124C344.237 190.761 343.648 188.462 342.424 186.242L340.672 187.207ZM342.161 193.062C342.102 195.026 341.539 196.997 340.44 198.983L342.19 199.952C343.424 197.722 344.091 195.442 344.16 193.121L342.161 193.062ZM340.441 198.981C339.346 200.949 337.75 202.891 335.626 204.802L336.964 206.289C339.215 204.264 340.965 202.154 342.189 199.954L340.441 198.981ZM335.631 204.798C333.5 206.693 330.927 208.476 327.901 210.144L328.866 211.895C331.998 210.169 334.699 208.303 336.96 206.293L335.631 204.798ZM327.901 210.144C325.906 211.243 323.888 212.187 321.848 212.978L322.57 214.843C324.697 214.019 326.796 213.036 328.866 211.895L327.901 210.144ZM321.84 212.98C319.802 213.788 317.784 214.447 315.787 214.959L316.283 216.896C318.367 216.363 320.465 215.677 322.577 214.84L321.84 212.98ZM315.797 214.956C313.8 215.446 311.835 215.81 309.903 216.049L310.149 218.034C312.162 217.785 314.204 217.406 316.273 216.899L315.797 214.956ZM309.914 216.048C307.987 216.264 306.145 216.356 304.389 216.327L304.356 218.327C306.205 218.357 308.133 218.26 310.137 218.035L309.914 216.048ZM305.369 217.405L306.002 209.319L304.008 209.163L303.376 217.249L305.369 217.405Z" fill="#000100" mask="url(#path-16-outside-1_3_55)"/>
</g>
<defs>
<filter id="filter0_d_3_55" x="9.39746" y="158" width="181.205" height="208" filterUnits="userSpaceOnUse" color-interpolation-filters="sRGB">
<feFlood flood-opacity="0" result="BackgroundImageFix"/>
<feColorMatrix in="SourceAlpha" type="matrix" values="0 0 0 0 0 0 0 0 0 0 0 0 0 0 0 0 0 0 127 0" result="hardAlpha"/>
<feOffset dy="4"/>
<feGaussianBlur stdDeviation="2"/>
<feComposite in2="hardAlpha" operator="out"/>
<feColorMatrix type="matrix" values="0 0 0 0 0 0 0 0 0 0 0 0 0 0 0 0 0 0 0.25 0"/>
<feBlend mode="normal" in2="BackgroundImageFix" result="effect1_dropShadow_3_55"/>
<feBlend mode="normal" in="SourceGraphic" in2="effect1_dropShadow_3_55" result="shape"/>
</filter>
<filter id="filter1_f_3_55" x="78.9" y="236.9" width="42.2" height="42.2" filterUnits="userSpaceOnUse" color-interpolation-filters="sRGB">
<feFlood flood-opacity="0" result="BackgroundImageFix"/>
<feBlend mode="normal" in="SourceGraphic" in2="BackgroundImageFix" result="shape"/>
<feGaussianBlur stdDeviation="5.55" result="effect1_foregroundBlur_3_55"/>
</filter>
<filter id="filter2_d_3_55" x="109.397" y="0" width="181.205" height="208" filterUnits="userSpaceOnUse" color-interpolation-filters="sRGB">
<feFlood flood-opacity="0" result="BackgroundImageFix"/>
<feColorMatrix in="SourceAlpha" type="matrix" values="0 0 0 0 0 0 0 0 0 0 0 0 0 0 0 0 0 0 127 0" result="hardAlpha"/>
<feOffset dy="4"/>
<feGaussianBlur stdDeviation="2"/>
<feComposite in2="hardAlpha" operator="out"/>
<feColorMatrix type="matrix" values="0 0 0 0 0 0 0 0 0 0 0 0 0 0 0 0 0 0 0.25 0"/>
<feBlend mode="normal" in2="BackgroundImageFix" result="effect1_dropShadow_3_55"/>
<feBlend mode="normal" in="SourceGraphic" in2="effect1_dropShadow_3_55" result="shape"/>
</filter>
<filter id="filter3_f_3_55" x="178.9" y="78.9" width="42.2" height="42.2" filterUnits="userSpaceOnUse" color-interpolation-filters="sRGB">
<feFlood flood-opacity="0" result="BackgroundImageFix"/>
<feBlend mode="normal" in="SourceGraphic" in2="BackgroundImageFix" result="shape"/>
<feGaussianBlur stdDeviation="5.55" result="effect1_foregroundBlur_3_55"/>
</filter>
<filter id="filter4_d_3_55" x="209.397" y="158" width="181.205" height="208" filterUnits="userSpaceOnUse" color-interpolation-filters="sRGB">
<feFlood flood-opacity="0" result="BackgroundImageFix"/>
<feColorMatrix in="SourceAlpha" type="matrix" values="0 0 0 0 0 0 0 0 0 0 0 0 0 0 0 0 0 0 127 0" result="hardAlpha"/>
<feOffset dy="4"/>
<feGaussianBlur stdDeviation="2"/>
<feComposite in2="hardAlpha" operator="out"/>
<feColorMatrix type="matrix" values="0 0 0 0 0 0 0 0 0 0 0 0 0 0 0 0 0 0 0.25 0"/>
<feBlend mode="normal" in2="BackgroundImageFix" result="effect1_dropShadow_3_55"/>
<feBlend mode="normal" in="SourceGraphic" in2="effect1_dropShadow_3_55" result="shape"/>
</filter>
<filter id="filter5_f_3_55" x="278.9" y="236.9" width="42.2" height="42.2" filterUnits="userSpaceOnUse" color-interpolation-filters="sRGB">
<feFlood flood-opacity="0" result="BackgroundImageFix"/>
<feBlend mode="normal" in="SourceGraphic" in2="BackgroundImageFix" result="shape"/>
<feGaussianBlur stdDeviation="5.55" result="effect1_foregroundBlur_3_55"/>
</filter>
<filter id="filter6_d_3_55" x="201.343" y="167.34" width="149.323" height="107.174" filterUnits="userSpaceOnUse" color-interpolation-filters="sRGB">
<feFlood flood-opacity="0" result="BackgroundImageFix"/>
<feColorMatrix in="SourceAlpha" type="matrix" values="0 0 0 0 0 0 0 0 0 0 0 0 0 0 0 0 0 0 127 0" result="hardAlpha"/>
<feOffset dx="5" dy="3"/>
<feGaussianBlur stdDeviation="0.75"/>
<feComposite in2="hardAlpha" operator="out"/>
<feColorMatrix type="matrix" values="0 0 0 0 0 0 0 0 0 0 0 0 0 0 0 0 0 0 1 0"/>
<feBlend mode="normal" in2="BackgroundImageFix" result="effect1_dropShadow_3_55"/>
<feBlend mode="normal" in="SourceGraphic" in2="effect1_dropShadow_3_55" result="shape"/>
</filter>
<radialGradient id="paint0_diamond_3_55" cx="0" cy="0" r="1" gradientUnits="userSpaceOnUse" gradientTransform="translate(98.5 255) rotate(89.4595) scale(159.007)">
<stop offset="0.0200231" stop-color="#090909"/>
<stop offset="0.655068" stop-color="#00F0FF"/>
</radialGradient>
<radialGradient id="paint1_diamond_3_55" cx="0" cy="0" r="1" gradientUnits="userSpaceOnUse" gradientTransform="translate(198.5 97) rotate(89.4595) scale(159.007)">
<stop offset="0.0200231" stop-color="#090909"/>
<stop offset="0.655068" stop-color="#00F0FF"/>
</radialGradient>
<radialGradient id="paint2_diamond_3_55" cx="0" cy="0" r="1" gradientUnits="userSpaceOnUse" gradientTransform="translate(298.5 255) rotate(89.4595) scale(159.007)">
<stop offset="0.0200231" stop-color="#090909"/>
<stop offset="0.655068" stop-color="#00F0FF"/>
</radialGradient>
</defs>
</svg>
