<svg width="200" height="208" viewBox="0 0 200 208" fill="none" xmlns="http://www.w3.org/2000/svg">
<g filter="url(#filter0_d_1_7)">
<path d="M100 0L186.603 50V150L100 200L13.3975 150V50L100 0Z" fill="#000100"/>
<path d="M14.8975 50.866L100 1.73205L185.103 50.866V149.134L100 198.268L14.8975 149.134V50.866Z" stroke="black" stroke-width="3"/>
</g>
<path d="M35.5481 62.7887L100 25.5774L164.452 62.7887V137.211L100 174.423L35.5481 137.211V62.7887Z" fill="url(#paint0_diamond_1_7)" stroke="black"/>
<path d="M100 75L121.651 87.5V112.5L100 125L78.3494 112.5V87.5L100 75Z" fill="black"/>
<g filter="url(#filter1_f_1_7)">
<circle cx="100" cy="100" r="10" fill="#FD0000"/>
</g>
<defs>
<filter id="filter0_d_1_7" x="9.39746" y="0" width="181.205" height="208" filterUnits="userSpaceOnUse" color-interpolation-filters="sRGB">
<feFlood flood-opacity="0" result="BackgroundImageFix"/>
<feColorMatrix in="SourceAlpha" type="matrix" values="0 0 0 0 0 0 0 0 0 0 0 0 0 0 0 0 0 0 127 0" result="hardAlpha"/>
<feOffset dy="4"/>
<feGaussianBlur stdDeviation="2"/>
<feComposite in2="hardAlpha" operator="out"/>
<feColorMatrix type="matrix" values="0 0 0 0 0 0 0 0 0 0 0 0 0 0 0 0 0 0 0.25 0"/>
<feBlend mode="normal" in2="BackgroundImageFix" result="effect1_dropShadow_1_7"/>
<feBlend mode="normal" in="SourceGraphic" in2="effect1_dropShadow_1_7" result="shape"/>
</filter>
<filter id="filter1_f_1_7" x="78.9" y="78.9" width="42.2" height="42.2" filterUnits="userSpaceOnUse" color-interpolation-filters="sRGB">
<feFlood flood-opacity="0" result="BackgroundImageFix"/>
<feBlend mode="normal" in="SourceGraphic" in2="BackgroundImageFix" result="shape"/>
<feGaussianBlur stdDeviation="5.55" result="effect1_foregroundBlur_1_7"/>
</filter>
<radialGradient id="paint0_diamond_1_7" cx="0" cy="0" r="1" gradientUnits="userSpaceOnUse" gradientTransform="translate(98.5 97) rotate(89.4595) scale(159.007)">
<stop offset="0.0200231" stop-color="#090909"/>
<stop offset="0.655068" stop-color="#00F0FF"/>
</radialGradient>
</defs>
</svg>
