<svg width="200" height="208" viewBox="0 0 200 208" fill="none" xmlns="http://www.w3.org/2000/svg">
<g filter="url(#filter0_d_1_20)">
<path d="M100 0L186.603 50V150L100 200L13.3975 150V50L100 0Z" fill="#000100"/>
<path d="M14.8975 50.866L100 1.73205L185.103 50.866V149.134L100 198.268L14.8975 149.134V50.866Z" stroke="black" stroke-width="3"/>
</g>
<path d="M35.5481 62.7887L100 25.5774L164.452 62.7887V137.211L100 174.423L35.5481 137.211V62.7887Z" fill="url(#paint0_diamond_1_20)" stroke="black"/>
<path d="M100 75L121.651 87.5V112.5L100 125L78.3494 112.5V87.5L100 75Z" fill="black"/>
<g filter="url(#filter1_f_1_20)">
<circle cx="100" cy="100" r="10" fill="#FD0000"/>
</g>
<g filter="url(#filter2_d_1_20)">
<mask id="path-6-outside-1_1_20" maskUnits="userSpaceOnUse" x="0.672655" y="2.68986" width="150.464" height="110.36" fill="black">
<rect fill="white" x="0.672655" y="2.68986" width="150.464" height="110.36"/>
<path d="M2.70143 74.5618L34.9852 56.771L38.523 63.1908L13.5597 76.9475L18.7646 86.3925L39.9638 74.7101L43.2853 80.7373L22.086 92.4197L29.9125 106.622L22.592 110.656L2.70143 74.5618ZM42.0055 52.9023L49.3259 48.8682L78.3085 48.2505L71.8183 36.4732L79.1388 32.4391L99.0294 68.5332L91.7089 72.5673L82.5845 56.0097L53.64 56.6967L69.2165 84.9623L61.8961 88.9964L42.0055 52.9023ZM105.005 51.2412C106.72 51.259 108.413 51.1991 110.084 51.0614C111.761 50.8998 113.438 50.6281 115.114 50.2463C116.782 49.8491 118.468 49.3213 120.172 48.663C121.892 47.9962 123.653 47.1665 125.454 46.1739C127.625 44.9777 129.396 43.821 130.767 42.704C132.13 41.5716 133.153 40.4961 133.836 39.4774C134.526 38.4349 134.896 37.4484 134.945 36.5181C135.01 35.5793 134.817 34.7019 134.367 33.886C133.646 32.5774 132.531 31.8471 131.023 31.6951C129.505 31.5277 127.607 32.0718 125.329 33.3274C124.328 33.8788 123.312 34.5293 122.28 35.2787C121.239 36.0127 120.192 36.7706 119.137 37.5523C118.098 38.3256 117.063 39.0869 116.031 39.8363C115.005 40.5619 114.008 41.1919 113.038 41.7264C111.421 42.6172 109.752 43.2662 108.03 43.6735C106.323 44.0723 104.663 44.1741 103.05 43.9791C101.452 43.7756 99.9715 43.2369 98.6069 42.3632C97.2423 41.4895 96.1019 40.2213 95.1856 38.5586C94.6427 37.5733 94.2348 36.5236 93.962 35.4095C93.7046 34.2869 93.6267 33.1256 93.7281 31.9257C93.8365 30.7019 94.1523 29.454 94.6757 28.1822C95.1906 26.8949 95.9574 25.6093 96.9759 24.3255C98.0099 23.0331 99.3119 21.7537 100.882 20.4871C102.459 19.1966 104.363 17.9363 106.596 16.7061C108.212 15.8153 109.887 15.0126 111.621 14.2981C113.346 13.5681 115.068 12.9406 116.785 12.4155C118.518 11.8819 120.228 11.4516 121.914 11.1244C123.592 10.7819 125.2 10.5484 126.737 10.4239L126.785 18.1045C125.522 18.218 124.205 18.4124 122.831 18.6877C121.449 18.9476 120.042 19.2911 118.612 19.7181C117.181 20.1452 115.739 20.6593 114.284 21.2604C112.836 21.8376 111.403 22.5165 109.987 23.297C107.97 24.4084 106.388 25.4709 105.241 26.4846C104.109 27.4897 103.285 28.4353 102.77 29.3214C102.246 30.1921 101.987 30.997 101.993 31.7363C102.006 32.4518 102.165 33.0866 102.471 33.6408C103.065 34.7185 104.037 35.3365 105.389 35.4948C106.732 35.6377 108.397 35.1619 110.383 34.0675C111.183 33.6263 112.07 33.0676 113.042 32.3914C114.021 31.6914 115.042 30.9582 116.105 30.1918C117.183 29.4169 118.285 28.649 119.411 27.888C120.544 27.1031 121.672 26.4009 122.796 25.7816C124.921 24.6108 126.931 23.8144 128.825 23.3924C130.736 22.9618 132.491 22.8876 134.092 23.1697C135.684 23.4364 137.112 24.044 138.378 24.9925C139.635 25.9256 140.691 27.1696 141.548 28.7245C142.694 30.8029 143.231 32.9252 143.16 35.0916C143.097 37.2341 142.482 39.3594 141.315 41.4674C140.155 43.5515 138.482 45.5775 136.295 47.5454C134.1 49.4979 131.462 51.3225 128.383 53.0193C126.351 54.1392 124.293 55.1028 122.209 55.91C120.133 56.7327 118.075 57.4051 116.035 57.9274C114.002 58.4258 111.998 58.7971 110.026 59.0413C108.06 59.2617 106.175 59.3568 104.372 59.3267L105.005 51.2412Z"/>
</mask>
<path d="M2.70143 74.5618L34.9852 56.771L38.523 63.1908L13.5597 76.9475L18.7646 86.3925L39.9638 74.7101L43.2853 80.7373L22.086 92.4197L29.9125 106.622L22.592 110.656L2.70143 74.5618ZM42.0055 52.9023L49.3259 48.8682L78.3085 48.2505L71.8183 36.4732L79.1388 32.4391L99.0294 68.5332L91.7089 72.5673L82.5845 56.0097L53.64 56.6967L69.2165 84.9623L61.8961 88.9964L42.0055 52.9023ZM105.005 51.2412C106.72 51.259 108.413 51.1991 110.084 51.0614C111.761 50.8998 113.438 50.6281 115.114 50.2463C116.782 49.8491 118.468 49.3213 120.172 48.663C121.892 47.9962 123.653 47.1665 125.454 46.1739C127.625 44.9777 129.396 43.821 130.767 42.704C132.13 41.5716 133.153 40.4961 133.836 39.4774C134.526 38.4349 134.896 37.4484 134.945 36.5181C135.01 35.5793 134.817 34.7019 134.367 33.886C133.646 32.5774 132.531 31.8471 131.023 31.6951C129.505 31.5277 127.607 32.0718 125.329 33.3274C124.328 33.8788 123.312 34.5293 122.28 35.2787C121.239 36.0127 120.192 36.7706 119.137 37.5523C118.098 38.3256 117.063 39.0869 116.031 39.8363C115.005 40.5619 114.008 41.1919 113.038 41.7264C111.421 42.6172 109.752 43.2662 108.03 43.6735C106.323 44.0723 104.663 44.1741 103.05 43.9791C101.452 43.7756 99.9715 43.2369 98.6069 42.3632C97.2423 41.4895 96.1019 40.2213 95.1856 38.5586C94.6427 37.5733 94.2348 36.5236 93.962 35.4095C93.7046 34.2869 93.6267 33.1256 93.7281 31.9257C93.8365 30.7019 94.1523 29.454 94.6757 28.1822C95.1906 26.8949 95.9574 25.6093 96.9759 24.3255C98.0099 23.0331 99.3119 21.7537 100.882 20.4871C102.459 19.1966 104.363 17.9363 106.596 16.7061C108.212 15.8153 109.887 15.0126 111.621 14.2981C113.346 13.5681 115.068 12.9406 116.785 12.4155C118.518 11.8819 120.228 11.4516 121.914 11.1244C123.592 10.7819 125.2 10.5484 126.737 10.4239L126.785 18.1045C125.522 18.218 124.205 18.4124 122.831 18.6877C121.449 18.9476 120.042 19.2911 118.612 19.7181C117.181 20.1452 115.739 20.6593 114.284 21.2604C112.836 21.8376 111.403 22.5165 109.987 23.297C107.97 24.4084 106.388 25.4709 105.241 26.4846C104.109 27.4897 103.285 28.4353 102.77 29.3214C102.246 30.1921 101.987 30.997 101.993 31.7363C102.006 32.4518 102.165 33.0866 102.471 33.6408C103.065 34.7185 104.037 35.3365 105.389 35.4948C106.732 35.6377 108.397 35.1619 110.383 34.0675C111.183 33.6263 112.07 33.0676 113.042 32.3914C114.021 31.6914 115.042 30.9582 116.105 30.1918C117.183 29.4169 118.285 28.649 119.411 27.888C120.544 27.1031 121.672 26.4009 122.796 25.7816C124.921 24.6108 126.931 23.8144 128.825 23.3924C130.736 22.9618 132.491 22.8876 134.092 23.1697C135.684 23.4364 137.112 24.044 138.378 24.9925C139.635 25.9256 140.691 27.1696 141.548 28.7245C142.694 30.8029 143.231 32.9252 143.16 35.0916C143.097 37.2341 142.482 39.3594 141.315 41.4674C140.155 43.5515 138.482 45.5775 136.295 47.5454C134.1 49.4979 131.462 51.3225 128.383 53.0193C126.351 54.1392 124.293 55.1028 122.209 55.91C120.133 56.7327 118.075 57.4051 116.035 57.9274C114.002 58.4258 111.998 58.7971 110.026 59.0413C108.06 59.2617 106.175 59.3568 104.372 59.3267L105.005 51.2412Z" fill="#00F0FF"/>
<path d="M2.70143 74.5618L2.21879 73.686L1.34297 74.1686L1.82561 75.0445L2.70143 74.5618ZM34.9852 56.771L35.8611 56.2884L35.3784 55.4125L34.5026 55.8952L34.9852 56.771ZM38.523 63.1908L39.0057 64.0666L39.8815 63.584L39.3989 62.7082L38.523 63.1908ZM13.5597 76.9475L13.077 76.0717L12.2012 76.5543L12.6838 77.4302L13.5597 76.9475ZM18.7646 86.3925L17.8887 86.8751L18.3714 87.7509L19.2472 87.2683L18.7646 86.3925ZM39.9638 74.7101L40.8396 74.2275L40.357 73.3516L39.4812 73.8343L39.9638 74.7101ZM43.2853 80.7373L43.7679 81.6132L44.6437 81.1305L44.1611 80.2547L43.2853 80.7373ZM22.086 92.4197L21.6034 91.5439L20.7276 92.0265L21.2102 92.9024L22.086 92.4197ZM29.9125 106.622L30.3951 107.498L31.2709 107.015L30.7883 106.139L29.9125 106.622ZM22.592 110.656L21.7162 111.139L22.1988 112.014L23.0747 111.532L22.592 110.656ZM3.18407 75.4376L35.4679 57.6468L34.5026 55.8952L2.21879 73.686L3.18407 75.4376ZM34.1094 57.2536L37.6472 63.6734L39.3989 62.7082L35.8611 56.2884L34.1094 57.2536ZM38.0404 62.315L13.077 76.0717L14.0423 77.8233L39.0057 64.0666L38.0404 62.315ZM12.6838 77.4302L17.8887 86.8751L19.6404 85.9098L14.4355 76.4649L12.6838 77.4302ZM19.2472 87.2683L40.4464 75.5859L39.4812 73.8343L18.2819 85.5167L19.2472 87.2683ZM39.088 75.1927L42.4094 81.22L44.1611 80.2547L40.8396 74.2275L39.088 75.1927ZM42.8026 79.8615L21.6034 91.5439L22.5687 93.2955L43.7679 81.6132L42.8026 79.8615ZM21.2102 92.9024L29.0366 107.104L30.7883 106.139L22.9618 91.9371L21.2102 92.9024ZM29.4298 105.746L22.1094 109.78L23.0747 111.532L30.3951 107.498L29.4298 105.746ZM23.4678 110.173L3.57725 74.0792L1.82561 75.0445L21.7162 111.139L23.4678 110.173ZM42.0055 52.9023L41.5228 52.0265L40.647 52.5091L41.1296 53.385L42.0055 52.9023ZM49.3259 48.8682L49.3046 47.8684L49.0587 47.8737L48.8433 47.9924L49.3259 48.8682ZM78.3085 48.2505L78.3299 49.2503L79.9819 49.2151L79.1844 47.7679L78.3085 48.2505ZM71.8183 36.4732L71.3357 35.5974L70.4599 36.08L70.9425 36.9558L71.8183 36.4732ZM79.1388 32.4391L80.0146 31.9564L79.5319 31.0806L78.6561 31.5632L79.1388 32.4391ZM99.0294 68.5332L99.512 69.409L100.388 68.9264L99.9052 68.0506L99.0294 68.5332ZM91.7089 72.5673L90.8331 73.0499L91.3157 73.9258L92.1916 73.4431L91.7089 72.5673ZM82.5844 56.0097L83.4603 55.5271L83.1674 54.9956L82.5607 55.01L82.5844 56.0097ZM53.64 56.6967L53.6163 55.697L51.9688 55.7361L52.7642 57.1793L53.64 56.6967ZM69.2165 84.9623L69.6991 85.8382L70.5749 85.3555L70.0923 84.4797L69.2165 84.9623ZM61.8961 88.9964L61.0202 89.4791L61.5029 90.3549L62.3787 89.8723L61.8961 88.9964ZM42.4881 53.7781L49.8085 49.744L48.8433 47.9924L41.5228 52.0265L42.4881 53.7781ZM49.3472 49.868L78.3299 49.2503L78.2872 47.2508L49.3046 47.8684L49.3472 49.868ZM79.1844 47.7679L72.6941 35.9905L70.9425 36.9558L77.4327 48.7332L79.1844 47.7679ZM72.301 37.349L79.6214 33.3149L78.6561 31.5632L71.3357 35.5974L72.301 37.349ZM78.2629 32.9217L98.1535 69.0158L99.9052 68.0506L80.0146 31.9564L78.2629 32.9217ZM98.5467 67.6574L91.2263 71.6915L92.1916 73.4431L99.512 69.409L98.5467 67.6574ZM92.5847 72.0847L83.4603 55.5271L81.7086 56.4924L90.8331 73.0499L92.5847 72.0847ZM82.5607 55.01L53.6163 55.697L53.6637 57.6964L82.6082 57.0094L82.5607 55.01ZM52.7642 57.1793L68.3407 85.445L70.0923 84.4797L54.5158 56.214L52.7642 57.1793ZM68.7338 84.0865L61.4134 88.1206L62.3787 89.8723L69.6991 85.8382L68.7338 84.0865ZM62.7719 88.5138L42.8813 52.4197L41.1296 53.385L61.0202 89.4791L62.7719 88.5138ZM105.005 51.2412L105.015 50.2412L104.081 50.2315L104.008 51.1632L105.005 51.2412ZM110.084 51.0614L110.166 52.0581L110.18 52.0568L110.084 51.0614ZM115.114 50.2463L115.336 51.2214L115.346 51.2191L115.114 50.2463ZM120.172 48.663L120.532 49.5959L120.534 49.5954L120.172 48.663ZM130.767 42.704L131.399 43.4794L131.406 43.4732L130.767 42.704ZM133.836 39.4774L134.667 40.0343L134.67 40.0293L133.836 39.4774ZM134.945 36.5181L133.947 36.4494L133.947 36.4573L133.946 36.4652L134.945 36.5181ZM131.023 31.6951L130.913 32.6891L130.922 32.69L131.023 31.6951ZM122.28 35.2787L122.856 36.0959L122.867 36.0879L122.28 35.2787ZM119.137 37.5523L118.542 36.749L118.54 36.7501L119.137 37.5523ZM116.031 39.8363L116.608 40.6527L116.618 40.6455L116.031 39.8363ZM108.03 43.6735L108.257 44.6473L108.26 44.6467L108.03 43.6735ZM103.05 43.9791L102.923 44.9711L102.93 44.9719L103.05 43.9791ZM93.962 35.4095L92.9873 35.6329L92.989 35.6401L92.9907 35.6473L93.962 35.4095ZM93.7281 31.9257L92.732 31.8375L92.7317 31.8414L93.7281 31.9257ZM94.6757 28.1822L95.6005 28.5627L95.6042 28.5535L94.6757 28.1822ZM96.9759 24.3255L96.1951 23.7007L96.1926 23.7039L96.9759 24.3255ZM100.882 20.4871L101.51 21.2654L101.515 21.261L100.882 20.4871ZM111.621 14.2981L112.002 15.2227L112.011 15.219L111.621 14.2981ZM116.785 12.4155L117.078 13.3718L117.08 13.3712L116.785 12.4155ZM121.914 11.1244L122.105 12.1062L122.114 12.1042L121.914 11.1244ZM126.737 10.4239L127.737 10.4176L127.73 9.34015L126.656 9.42713L126.737 10.4239ZM126.785 18.1045L126.874 19.1005L127.79 19.0181L127.785 18.0983L126.785 18.1045ZM122.831 18.6877L123.016 19.6705L123.027 19.6682L122.831 18.6877ZM114.284 21.2604L114.654 22.1894L114.665 22.1846L114.284 21.2604ZM105.241 26.4846L104.579 25.7351L104.577 25.7368L105.241 26.4846ZM102.77 29.3214L103.627 29.8369L103.631 29.8305L103.634 29.8241L102.77 29.3214ZM101.993 31.7363L100.993 31.7445L100.993 31.7544L101.993 31.7363ZM105.389 35.4948L105.273 36.488L105.283 36.4892L105.389 35.4948ZM113.042 32.3914L113.613 33.2124L113.623 33.2049L113.042 32.3914ZM116.105 30.1918L115.521 29.3797L115.52 29.3806L116.105 30.1918ZM119.411 27.888L119.971 28.7165L119.981 28.71L119.411 27.888ZM128.825 23.3924L129.043 24.3685L129.045 24.3679L128.825 23.3924ZM134.092 23.1697L133.918 24.1546L133.926 24.156L134.092 23.1697ZM138.378 24.9925L137.778 25.7926L137.782 25.7954L138.378 24.9925ZM143.16 35.0916L142.161 35.0591L142.161 35.0619L143.16 35.0916ZM141.315 41.4674L142.189 41.9536L142.19 41.9516L141.315 41.4674ZM136.295 47.5454L136.96 48.2927L136.964 48.2888L136.295 47.5454ZM122.209 55.91L121.848 54.9775L121.84 54.9804L122.209 55.91ZM116.035 57.9274L116.273 58.8987L116.283 58.8962L116.035 57.9274ZM110.026 59.0413L110.137 60.0352L110.149 60.0338L110.026 59.0413ZM104.372 59.3267L103.376 59.2488L103.293 60.3088L104.356 60.3266L104.372 59.3267ZM104.994 52.2411C106.74 52.2593 108.464 52.1983 110.166 52.058L110.002 50.0648C108.363 50.1999 106.701 50.2588 105.015 50.2412L104.994 52.2411ZM110.18 52.0568C111.9 51.8911 113.619 51.6124 115.336 51.2213L114.892 49.2713C113.256 49.6438 111.622 49.9086 109.988 50.066L110.18 52.0568ZM115.346 51.2191C117.06 50.8108 118.789 50.2693 120.532 49.5959L119.812 47.7302C118.147 48.3734 116.503 48.8874 114.882 49.2735L115.346 51.2191ZM120.534 49.5954C122.3 48.9108 124.101 48.0615 125.936 47.0497L124.971 45.2981C123.205 46.2716 121.485 47.0817 119.811 47.7307L120.534 49.5954ZM125.936 47.0497C128.141 45.8351 129.966 44.646 131.399 43.4794L130.136 41.9287C128.825 42.9961 127.109 44.1203 124.971 45.2981L125.936 47.0497ZM131.406 43.4732C132.813 42.3042 133.912 41.1592 134.667 40.0343L133.005 38.9205C132.394 39.8329 131.447 40.839 130.128 41.9349L131.406 43.4732ZM134.67 40.0293C135.426 38.8872 135.882 37.7302 135.943 36.571L133.946 36.4652C133.909 37.1667 133.626 37.9826 133.002 38.9255L134.67 40.0293ZM135.942 36.5868C136.02 35.4584 135.787 34.3893 135.243 33.4033L133.492 34.3686C133.847 35.0145 133.999 35.7002 133.947 36.4494L135.942 36.5868ZM135.243 33.4033C134.361 31.8018 132.953 30.8845 131.123 30.7001L130.922 32.69C132.11 32.8097 132.932 33.353 133.492 34.3686L135.243 33.4033ZM131.132 30.7011C129.311 30.5001 127.191 31.1592 124.846 32.4516L125.812 34.2032C128.023 32.9844 129.7 32.5552 130.913 32.689L131.132 30.7011ZM124.846 32.4516C123.805 33.0252 122.754 33.6985 121.692 34.4695L122.867 36.0879C123.87 35.3601 124.851 34.7325 125.812 34.2032L124.846 32.4516ZM121.703 34.4615C120.656 35.2002 119.602 35.9627 118.542 36.749L119.733 38.3556C120.781 37.5784 121.822 36.8252 122.856 36.0958L121.703 34.4615ZM118.54 36.7501C117.504 37.5211 116.472 38.2801 115.443 39.0272L116.618 40.6455C117.653 39.8938 118.692 39.1301 119.734 38.3545L118.54 36.7501ZM115.453 39.0201C114.454 39.7268 113.488 40.3363 112.555 40.8505L113.521 42.6022C114.527 42.0474 115.556 41.3969 116.608 40.6526L115.453 39.0201ZM112.555 40.8505C111.015 41.6995 109.43 42.3148 107.799 42.7003L108.26 44.6467C110.074 44.2176 111.828 43.5349 113.521 42.6022L112.555 40.8505ZM107.802 42.6997C106.2 43.074 104.658 43.1663 103.17 42.9863L102.93 44.9719C104.668 45.182 106.445 45.0705 108.257 44.6473L107.802 42.6997ZM103.176 42.9871C101.727 42.8024 100.387 42.3154 99.1461 41.5211L98.0677 43.2054C99.5563 44.1585 101.178 44.7487 102.923 44.9711L103.176 42.9871ZM99.1461 41.5211C97.9443 40.7515 96.9111 39.6178 96.0614 38.076L94.3098 39.0412C95.2927 40.8248 96.5403 42.2275 98.0677 43.2054L99.1461 41.5211ZM96.0614 38.076C95.5618 37.1692 95.1856 36.202 94.9333 35.1717L92.9907 35.6473C93.284 36.8452 93.7235 37.9774 94.3098 39.0412L96.0614 38.076ZM94.9367 35.186C94.7035 34.1687 94.6314 33.1115 94.7246 32.0099L92.7317 31.8414C92.6219 33.1397 92.7058 34.405 92.9873 35.6329L94.9367 35.186ZM94.7242 32.0139C94.8227 30.9018 95.111 29.7523 95.6005 28.5627L93.751 27.8016C93.1937 29.1558 92.8502 30.502 92.732 31.8375L94.7242 32.0139ZM95.6042 28.5535C96.0773 27.3708 96.7904 26.1683 97.7593 24.947L96.1926 23.7039C95.1244 25.0503 94.304 26.4189 93.7472 27.8108L95.6042 28.5535ZM97.7568 24.9502C98.7369 23.7251 99.9844 22.496 101.51 21.2654L100.254 19.7088C98.6394 21.0114 97.2829 22.3411 96.1951 23.7007L97.7568 24.9502ZM101.515 21.261C103.035 20.0171 104.887 18.7897 107.078 17.5819L106.113 15.8303C103.84 17.0829 101.882 18.3761 100.249 19.7132L101.515 21.261ZM107.078 17.5819C108.661 16.7096 110.303 15.9231 112.002 15.2226L111.24 13.3735C109.472 14.1022 107.763 14.9211 106.113 15.8303L107.078 17.5819ZM112.011 15.219C113.705 14.502 115.394 13.8864 117.078 13.3718L116.493 11.4592C114.741 11.9948 112.987 12.6343 111.231 13.3771L112.011 15.219ZM117.08 13.3712C118.78 12.8476 120.455 12.4261 122.105 12.1061L121.724 10.1427C120.001 10.477 118.256 10.9163 116.491 11.4598L117.08 13.3712ZM122.114 12.1042C123.757 11.7688 125.324 11.5415 126.817 11.4206L126.656 9.42713C125.075 9.5552 123.427 9.79491 121.714 10.1446L122.114 12.1042ZM125.737 10.4301L125.785 18.1108L127.785 18.0983L127.737 10.4176L125.737 10.4301ZM126.695 17.1086C125.393 17.2256 124.04 17.4255 122.634 17.7072L123.027 19.6682C124.369 19.3993 125.651 19.2105 126.874 19.1005L126.695 17.1086ZM122.646 17.7049C121.228 17.9716 119.788 18.3235 118.326 18.7599L118.898 20.6763C120.297 20.2586 121.67 19.9236 123.016 19.6705L122.646 17.7049ZM118.326 18.7599C116.861 19.1972 115.386 19.7228 113.902 20.3361L114.665 22.1846C116.091 21.5957 117.502 21.0932 118.898 20.6763L118.326 18.7599ZM113.913 20.3315C112.425 20.9246 110.956 21.6214 109.504 22.4212L110.47 24.1728C111.851 23.4116 113.246 22.7506 114.654 22.1893L113.913 20.3315ZM109.504 22.4212C107.452 23.5522 105.801 24.6552 104.579 25.7351L105.903 27.234C106.975 26.2867 108.488 25.2647 110.47 24.1728L109.504 22.4212ZM104.577 25.7368C103.399 26.7822 102.493 27.8083 101.905 28.8187L103.634 29.8241C104.077 29.0624 104.818 28.1973 105.905 27.2323L104.577 25.7368ZM101.913 28.8059C101.328 29.7777 100.985 30.7641 100.993 31.7445L102.993 31.7282C102.989 31.23 103.164 30.6064 103.627 29.8369L101.913 28.8059ZM100.993 31.7544C101.009 32.6109 101.201 33.409 101.595 34.1235L103.346 33.1582C103.129 32.7641 103.003 32.2926 102.993 31.7183L100.993 31.7544ZM101.595 34.1235C102.363 35.5171 103.64 36.2968 105.273 36.488L105.505 34.5016C104.435 34.3762 103.766 33.9198 103.346 33.1582L101.595 34.1235ZM105.283 36.4892C106.927 36.664 108.81 36.0762 110.865 34.9433L109.9 33.1917C107.984 34.2476 106.538 34.6113 105.495 34.5004L105.283 36.4892ZM110.865 34.9433C111.704 34.4813 112.62 33.9029 113.613 33.2124L112.471 31.5705C111.519 32.2323 110.663 32.7713 109.9 33.1917L110.865 34.9433ZM113.623 33.2049C114.604 32.504 115.626 31.77 116.689 31.0029L115.52 29.3806C114.458 30.1463 113.438 30.8788 112.46 31.578L113.623 33.2049ZM116.688 31.0039C117.758 30.2347 118.853 29.4723 119.971 28.7165L118.851 27.0594C117.717 27.8257 116.607 28.5991 115.521 29.3797L116.688 31.0039ZM119.981 28.71C121.088 27.9431 122.187 27.2592 123.279 26.6574L122.314 24.9058C121.158 25.5427 120.001 26.2631 118.842 27.066L119.981 28.71ZM123.279 26.6574C125.34 25.5216 127.26 24.7655 129.043 24.3685L128.608 22.4163C126.601 22.8634 124.502 23.7001 122.314 24.9058L123.279 26.6574ZM129.045 24.3679C130.852 23.9607 132.472 23.8996 133.918 24.1545L134.265 22.1849C132.51 21.8756 130.619 21.963 128.606 22.4168L129.045 24.3679ZM133.926 24.156C135.364 24.3968 136.643 24.9421 137.778 25.7926L138.978 24.1923C137.582 23.1459 136.003 22.476 134.257 22.1834L133.926 24.156ZM137.782 25.7954C138.909 26.6323 139.875 27.761 140.672 29.2072L142.424 28.2419C141.507 26.5782 140.36 25.2189 138.974 24.1896L137.782 25.7954ZM140.672 29.2072C141.739 31.1434 142.225 33.0892 142.161 35.0591L144.16 35.1242C144.237 32.7613 143.648 30.4623 142.424 28.2419L140.672 29.2072ZM142.161 35.0619C142.102 37.0263 141.539 38.9971 140.44 40.9832L142.19 41.9516C143.424 39.7216 144.091 37.4419 144.16 35.1213L142.161 35.0619ZM140.441 40.9812C139.346 42.9493 137.75 44.8914 135.626 46.802L136.964 48.2888C139.215 46.2636 140.965 44.1536 142.189 41.9536L140.441 40.9812ZM135.631 46.7981C133.5 48.6926 130.927 50.4759 127.901 52.1435L128.866 53.8951C131.998 52.1692 134.699 50.3032 136.96 48.2926L135.631 46.7981ZM127.901 52.1435C125.906 53.2426 123.888 54.187 121.848 54.9775L122.57 56.8425C124.697 56.0185 126.796 55.0358 128.866 53.8951L127.901 52.1435ZM121.84 54.9804C119.802 55.7884 117.784 56.4475 115.787 56.9587L116.283 58.8962C118.367 58.3628 120.465 57.677 122.577 56.8397L121.84 54.9804ZM115.797 56.9562C113.8 57.4458 111.835 57.8098 109.903 58.0489L110.149 60.0338C112.162 59.7845 114.204 59.4059 116.273 58.8987L115.797 56.9562ZM109.914 58.0476C107.987 58.2636 106.145 58.3562 104.389 58.3269L104.356 60.3266C106.205 60.3574 108.133 60.2598 110.137 60.0351L109.914 58.0476ZM105.369 59.4047L106.002 51.3191L104.008 51.1632L103.376 59.2488L105.369 59.4047Z" fill="#000100" mask="url(#path-6-outside-1_1_20)"/>
</g>
<defs>
<filter id="filter0_d_1_20" x="9.39746" y="0" width="181.205" height="208" filterUnits="userSpaceOnUse" color-interpolation-filters="sRGB">
<feFlood flood-opacity="0" result="BackgroundImageFix"/>
<feColorMatrix in="SourceAlpha" type="matrix" values="0 0 0 0 0 0 0 0 0 0 0 0 0 0 0 0 0 0 127 0" result="hardAlpha"/>
<feOffset dy="4"/>
<feGaussianBlur stdDeviation="2"/>
<feComposite in2="hardAlpha" operator="out"/>
<feColorMatrix type="matrix" values="0 0 0 0 0 0 0 0 0 0 0 0 0 0 0 0 0 0 0.25 0"/>
<feBlend mode="normal" in2="BackgroundImageFix" result="effect1_dropShadow_1_20"/>
<feBlend mode="normal" in="SourceGraphic" in2="effect1_dropShadow_1_20" result="shape"/>
</filter>
<filter id="filter1_f_1_20" x="78.9" y="78.9" width="42.2" height="42.2" filterUnits="userSpaceOnUse" color-interpolation-filters="sRGB">
<feFlood flood-opacity="0" result="BackgroundImageFix"/>
<feBlend mode="normal" in="SourceGraphic" in2="BackgroundImageFix" result="shape"/>
<feGaussianBlur stdDeviation="5.55" result="effect1_foregroundBlur_1_20"/>
</filter>
<filter id="filter2_d_1_20" x="1.34302" y="9.34015" width="149.323" height="107.174" filterUnits="userSpaceOnUse" color-interpolation-filters="sRGB">
<feFlood flood-opacity="0" result="BackgroundImageFix"/>
<feColorMatrix in="SourceAlpha" type="matrix" values="0 0 0 0 0 0 0 0 0 0 0 0 0 0 0 0 0 0 127 0" result="hardAlpha"/>
<feOffset dx="5" dy="3"/>
<feGaussianBlur stdDeviation="0.75"/>
<feComposite in2="hardAlpha" operator="out"/>
<feColorMatrix type="matrix" values="0 0 0 0 0 0 0 0 0 0 0 0 0 0 0 0 0 0 1 0"/>
<feBlend mode="normal" in2="BackgroundImageFix" result="effect1_dropShadow_1_20"/>
<feBlend mode="normal" in="SourceGraphic" in2="effect1_dropShadow_1_20" result="shape"/>
</filter>
<radialGradient id="paint0_diamond_1_20" cx="0" cy="0" r="1" gradientUnits="userSpaceOnUse" gradientTransform="translate(98.5 97) rotate(89.4595) scale(159.007)">
<stop offset="0.0200231" stop-color="#090909"/>
<stop offset="0.655068" stop-color="#00F0FF"/>
</radialGradient>
</defs>
</svg>
